<svg width="16" height="16" viewBox="0 0 16 16" fill="none" xmlns="http://www.w3.org/2000/svg">
<g clip-path="url(#clip0_802_9838)">
<path d="M6.1924 5.8429H5.96401H4.44141V7.23862H6.0782C6.37003 7.23862 6.6238 7.16249 6.6238 6.49001C6.6238 5.81752 6.1924 5.8429 6.1924 5.8429Z" fill="black"/>
<path d="M6.1924 8.25391H4.44141V10.0303H5.9767C6.00208 10.0303 6.04014 10.0303 6.0909 10.0303C6.34466 10.0303 6.82682 9.92877 6.82682 9.16747C6.83951 8.26659 6.1924 8.25391 6.1924 8.25391Z" fill="black"/>
<path d="M11.9778 0.00561523H4.00952C1.80174 0.00561523 0 1.80879 0 4.01831V12.0056C0 14.2024 1.80174 16.0056 4.00952 16.0056H11.9905C14.1983 16.0056 16 14.2024 16 11.9929V4.01831C15.9873 1.80879 14.1856 0.00561523 11.9778 0.00561523ZM9.38937 5.08498H12.0539V5.7199H9.38937V5.08498ZM8.14592 9.26276C8.14592 11.2437 6.19191 11.3072 6.19191 11.3072H4.39017H4.33941H3.0452V4.70403H4.32672H4.37748H6.17922C7.15623 4.70403 7.93021 5.26276 7.93021 6.43101C7.93021 7.59927 6.99128 7.66276 6.99128 7.66276C8.23473 7.65006 8.14592 9.26276 8.14592 9.26276ZM12.9294 9.14847H9.71927C9.71927 10.4183 10.8105 10.3167 10.8105 10.3167C11.8382 10.3167 11.8002 9.65641 11.8002 9.65641H12.8914C12.8914 11.4342 10.7724 11.358 10.7724 11.358C8.23473 11.358 8.39968 8.85641 8.39968 8.85641C8.39968 8.85641 8.39968 6.34212 10.7724 6.34212C13.272 6.32943 12.9294 9.14847 12.9294 9.14847Z" fill="black"/>
<path d="M10.7982 7.25122C9.8466 7.25122 9.70703 8.2536 9.70703 8.2536H11.7372C11.7372 8.2536 11.7498 7.25122 10.7982 7.25122Z" fill="black"/>
</g>
<defs>
<clipPath id="clip0_802_9838">
<rect width="16" height="16" fill="white"/>
</clipPath>
</defs>
</svg>
