<svg width="30" height="30" viewBox="0 0 30 30" fill="none" xmlns="http://www.w3.org/2000/svg">
<path d="M16.7589 15.0083L29.6186 2.14852C30.115 1.66918 30.1287 0.878265 29.6494 0.381932C29.17 -0.1144 28.3791 -0.128163 27.8828 0.351186C27.8724 0.361215 27.8621 0.371464 27.852 0.381932L14.9922 13.2417L2.13242 0.381859C1.63609 -0.0974898 0.845175 -0.0837272 0.365826 0.412605C-0.10181 0.896786 -0.10181 1.66434 0.365826 2.14852L13.2256 15.0083L0.365826 27.8681C-0.121942 28.3559 -0.121942 29.1468 0.365826 29.6347C0.853667 30.1224 1.64458 30.1224 2.13242 29.6347L14.9922 16.7749L27.852 29.6347C28.3483 30.114 29.1392 30.1002 29.6186 29.6039C30.0861 29.1197 30.0861 28.3522 29.6186 27.8681L16.7589 15.0083Z" fill="white"/>
</svg>
