<svg width="79" height="44" viewBox="0 0 79 44" fill="none" xmlns="http://www.w3.org/2000/svg">
<g clip-path="url(#clip0_103_21)">
<path fill-rule="evenodd" clip-rule="evenodd" d="M28.0766 12.2333L28.3515 12.4367C28.5677 12.5952 28.9039 12.5767 29.1008 12.3945L39.3648 2.93148C39.5616 2.7503 39.8805 2.75329 40.0741 2.93747L50.0194 12.4469C50.2123 12.6308 50.5472 12.6558 50.7657 12.5006L51.0454 12.2989C51.2636 12.1434 51.2822 11.8669 51.0853 11.6857L40.8586 2.21372C40.6629 2.03253 40.6629 1.73429 40.8565 1.55235L41.5476 0.908706C41.7432 0.726768 41.7565 0.416051 41.5749 0.21839L41.5184 0.156746C41.3371 -0.0406653 41.0285 -0.0531439 40.8329 0.129293L40.0897 0.820607C39.8968 1.00254 39.5769 1.00055 39.3833 0.815366L38.6813 0.144767C38.4884 -0.0404157 38.1798 -0.0331781 37.9945 0.16024L37.937 0.222882C37.7514 0.416301 37.7597 0.726019 37.9533 0.910952L38.6044 1.53563C38.798 1.71832 38.793 2.01655 38.5941 2.19475L28.0492 11.6211C27.8501 11.7993 27.8624 12.0748 28.0766 12.2333ZM49.5848 13.1864C49.6711 12.5213 49.1993 11.9061 48.5372 11.8195C47.872 11.7331 47.2598 12.2043 47.1747 12.8717C47.0886 13.5393 47.5581 14.1502 48.2233 14.2376C48.8887 14.3252 49.4999 13.853 49.5848 13.1864ZM49.2149 16.0347C49.303 15.3681 48.8325 14.7549 48.1668 14.6688C47.5016 14.5822 46.8917 15.0534 46.8056 15.7198C46.7185 16.3864 47.1878 16.9991 47.8544 17.0869C48.5176 17.173 49.1285 16.7009 49.2149 16.0347ZM31.2999 11.797C31.2999 11.797 32.0678 12.1579 32.1672 12.837C32.2554 13.4118 31.8506 13.8902 31.8506 13.8902C31.6783 14.0948 31.7562 14.2625 32.0229 14.2625H37.076C37.3447 14.2625 37.7042 14.0968 37.8777 13.8934L37.9566 13.8018C38.1319 13.5992 38.4917 13.4327 38.7591 13.4327H40.616C40.8834 13.4327 41.2422 13.6004 41.4145 13.8051L41.4863 13.8872C41.6596 14.0918 42.0181 14.2595 42.285 14.2595L47.1207 14.2618C47.3854 14.2618 47.4602 14.0981 47.2829 13.8974C47.2829 13.8974 46.8626 13.4225 46.9374 12.8415C47.0213 12.1923 47.7053 11.8222 47.7053 11.8222C47.9408 11.6957 47.9155 11.5916 47.6488 11.5916H31.3476C31.0785 11.5914 31.0579 11.684 31.2999 11.797ZM31.3286 17.0979C31.99 16.9991 32.4512 16.3779 32.3508 15.7123C32.2554 15.0469 31.6342 14.5862 30.972 14.6851C30.3076 14.7839 29.8493 15.4051 29.9478 16.0694C30.0449 16.7348 30.6644 17.1968 31.3286 17.0979ZM30.5524 11.8444C29.889 11.9433 29.4287 12.5645 29.5282 13.2288C29.6256 13.8932 30.2438 14.3549 30.908 14.2561C31.5694 14.1575 32.0306 13.5373 31.9322 12.8717C31.8338 12.2066 31.2158 11.7456 30.5524 11.8444ZM31.7479 19.9386C32.4103 19.841 32.8706 19.2185 32.7699 18.5542C32.6735 17.8898 32.0532 17.4291 31.3921 17.5269C30.7277 17.6265 30.2684 18.2457 30.3671 18.9123C30.4663 19.5769 31.0835 20.0374 31.7479 19.9386ZM46.0664 21.4178C45.9802 22.0839 46.4508 22.6961 47.1165 22.7834C47.7809 22.87 48.3905 22.3991 48.4769 21.7325C48.5628 21.0659 48.0925 20.4522 47.4301 20.3646C46.7647 20.278 46.1537 20.7514 46.0664 21.4178ZM46.5891 19.6393C46.5891 19.6393 46.1219 19.1427 46.1977 18.538C46.2682 17.9969 46.7112 17.6647 46.7112 17.6647C46.9256 17.5032 46.8834 17.3727 46.616 17.3727H42.2845C42.0176 17.3727 41.6754 17.5526 41.525 17.7745L41.4069 17.9472C41.2553 18.1673 40.9138 18.3483 40.6451 18.3483H38.7199C38.4523 18.3483 38.111 18.1671 37.9591 17.9472L37.8361 17.7663C37.6834 17.5462 37.3442 17.3652 37.0755 17.3652L32.577 17.3712C32.3096 17.3712 32.2684 17.5012 32.4849 17.658C32.4849 17.658 32.9288 17.9812 33.0077 18.519C33.0968 19.1257 32.6272 19.6351 32.6272 19.6351C32.447 19.8315 32.5175 19.994 32.7862 19.994H46.4375C46.7019 19.9945 46.7717 19.8337 46.5891 19.6393ZM48.8465 18.8824C48.9339 18.2173 48.4624 17.6041 47.7989 17.5167C47.1345 17.4301 46.5226 17.9023 46.4375 18.5687C46.3501 19.2353 46.8197 19.8482 47.4851 19.9348C48.1487 20.0219 48.7597 19.5497 48.8465 18.8824ZM31.5633 11.3448H47.9037C48.1713 11.3448 48.2308 11.1946 48.036 11.0116L40.0744 3.51798C39.8798 3.3328 39.5609 3.33504 39.366 3.51798L31.4323 11.0104C31.2372 11.1946 31.2967 11.3448 31.5633 11.3448ZM32.1662 22.7804C32.8306 22.6826 33.2889 22.0614 33.1905 21.3958C33.094 20.7307 32.4728 20.2697 31.8104 20.3678C31.1483 20.4664 30.6888 21.0886 30.7874 21.7529C30.8836 22.4173 31.5038 22.879 32.1662 22.7804ZM47.1165 14.7921C47.3337 14.6357 47.2925 14.5084 47.0263 14.5084H42.2848C42.2692 14.5084 42.2519 14.5114 42.2376 14.5134C41.7678 14.5358 41.364 15.0073 41.3005 15.6512C41.2327 16.3679 41.6111 17.0273 42.1484 17.1219C42.218 17.1331 42.2868 17.1341 42.3554 17.1259H46.7742C47.0406 17.1259 47.1112 16.9637 46.9332 16.7652C46.9332 16.7652 46.4922 16.2798 46.5691 15.6903C46.6396 15.1315 47.1165 14.7921 47.1165 14.7921ZM32.409 17.1256H37.0634C37.0695 17.1256 37.0777 17.1236 37.0828 17.1236C37.586 17.1536 38.0322 16.6682 38.0977 15.9893C38.1675 15.2713 37.7891 14.6129 37.252 14.5196C37.2091 14.5124 37.1659 14.5144 37.1219 14.5144C37.1034 14.5124 37.0828 14.5086 37.0634 14.5086H32.0944C31.8267 14.5086 31.7878 14.6319 32.0103 14.7809C32.0103 14.7809 32.5055 15.1163 32.5873 15.6779C32.6745 16.2671 32.2428 16.76 32.2428 16.76C32.0676 16.9602 32.1426 17.1256 32.409 17.1256ZM57.9102 24.7705C56.4802 24.6233 55.3812 24.5801 54.4792 24.6859C54.7077 24.4186 54.9302 24.1224 55.128 23.7932C55.1958 23.6761 55.2591 23.5651 55.3237 23.452C55.9265 23.4283 56.3682 23.453 56.3682 23.453C56.3682 23.453 56.0157 23.3038 55.4909 23.1558C57.0133 20.3748 57.1926 18.4431 57.1926 18.4431C57.1926 18.4431 56.3469 20.671 54.6236 22.9047C55.1291 21.0741 55.1291 19.5078 55.1291 19.5078C55.1291 19.5078 54.6402 21.3127 53.9903 22.883C53.5647 22.8545 53.128 22.8718 52.722 22.9768C52.5025 23.0325 52.2914 23.0964 52.0845 23.1643C52.7343 21.7632 53.5062 20.418 54.423 19.1981C56.0958 17.4868 58.947 16.5424 58.947 16.5424C58.947 16.5424 57.8841 16.4663 56.4785 16.927C56.8958 16.5486 57.3312 16.1927 57.7937 15.8635C57.9311 16.0073 58.1453 16.0909 58.3371 15.9706C59.4093 15.3112 60.5156 15.006 61.674 14.6354C61.8605 14.575 62.133 14.2199 62.1003 14.0112C62.4182 13.8859 62.7308 13.7509 63.0415 13.6092C62.7233 13.7305 62.4037 13.8478 62.083 13.9568C61.7026 13.3376 60.6681 13.9064 60.1179 14.0761C59.4136 14.2985 58.7421 14.6122 58.0983 15.008C57.8879 15.1405 57.8143 15.4028 57.7751 15.6357C57.1286 16.0787 56.535 16.5746 55.9783 17.1124C55.2574 17.4024 54.4752 17.8364 53.7116 18.4905C53.2669 18.8751 52.8456 19.268 52.4488 19.663C53.7618 17.4838 54.776 15.2177 55.3746 12.7946C55.6747 12.5949 56.0009 12.3316 56.078 11.9615C56.2992 10.8384 56.3936 9.72333 56.3451 8.62621C56.2989 7.76918 56.5648 6.00246 55.5167 5.87394C55.5034 5.36706 55.5024 4.85993 55.5117 4.3488C55.4705 4.86217 55.4432 5.37304 55.4296 5.88117C55.1263 5.96977 54.7737 6.564 54.7848 6.856C54.8576 8.66639 54.996 10.3657 54.6271 12.2393C54.5563 12.5767 54.7815 12.8163 55.0484 12.9119C54.3132 15.7123 53.0279 18.3361 51.3957 20.7736C51.3015 20.8787 51.2091 20.9845 51.1167 21.0883C51.1835 20.7581 51.2204 20.4384 51.235 20.13C51.5916 18.7371 52.1246 17.503 52.2939 15.9212C52.3125 15.764 52.3238 15.6055 52.3341 15.444C52.1945 16.1743 52.0069 16.8139 51.7628 17.3527C51.5765 17.8506 51.3477 18.2078 51.1519 18.6735C50.9962 17.7109 50.6997 17.0884 50.6997 17.0884C50.6997 17.0884 50.6175 20.0474 50.105 21.265C49.7741 22.0527 49.1458 22.8303 48.4136 23.5431C48.3491 23.5194 48.2876 23.4949 48.2208 23.47C47.6387 23.2499 47.3628 23.0774 46.722 22.9436C46.6328 22.9242 46.5364 22.9067 46.442 22.8902C46.5294 22.8343 46.5118 22.7318 46.3742 22.6115C46.3742 22.6115 45.7417 22.0634 45.8311 21.3866C45.8976 20.862 46.3057 20.54 46.3057 20.54C46.5161 20.3746 46.4699 20.2385 46.2042 20.2385H33.0594C32.791 20.2385 32.7458 20.3746 32.9569 20.5388C32.9569 20.5388 33.3517 20.8475 33.4275 21.3609C33.5289 22.0447 32.8861 22.6095 32.8861 22.6095C32.7661 22.715 32.7385 22.8079 32.7907 22.8675C32.6473 22.8922 32.5037 22.9164 32.3694 22.9456C31.7276 23.0812 31.4498 23.2541 30.8665 23.4762C30.7814 23.5069 30.6993 23.5401 30.6162 23.5708C29.8709 22.8508 29.2301 22.0632 28.8959 21.265C28.3814 20.0474 28.3003 17.0884 28.3003 17.0884C28.3003 17.0884 28.003 17.7126 27.8483 18.6752C27.6525 18.2083 27.424 17.8504 27.2381 17.3525C26.9943 16.8137 26.8055 16.1738 26.6661 15.4438C26.6772 15.6052 26.6908 15.7637 26.7061 15.9209C26.8763 17.5027 27.4094 18.7369 27.7652 20.1297C27.7805 20.4379 27.8174 20.7589 27.882 21.0881C27.7928 20.9843 27.6984 20.8784 27.604 20.7711C25.9729 18.3358 24.6862 15.7121 23.9515 12.9116C24.2199 12.8158 24.4434 12.5762 24.3728 12.239C24.0057 10.3652 24.1423 8.66614 24.2159 6.85575C24.2252 6.56375 23.8734 5.96952 23.5711 5.88092C23.5578 5.37304 23.5292 4.86192 23.489 4.34855C23.4973 4.85968 23.4953 5.36681 23.4819 5.87369C22.4361 6.00246 22.7008 7.76918 22.6556 8.62596C22.6064 9.72308 22.7005 10.8382 22.9222 11.9612C22.9981 12.3311 23.325 12.5947 23.6253 12.7943C24.2252 15.2174 25.2369 17.484 26.5524 19.6628C26.1547 19.2677 25.7333 18.8749 25.2863 18.4903C24.5258 17.8362 23.7423 17.4022 23.0207 17.1122C22.465 16.5733 21.8696 16.0774 21.2266 15.6354C21.1854 15.4026 21.1116 15.1405 20.9027 15.0078C20.2598 14.6119 19.5864 14.298 18.882 14.0759C18.3326 13.9062 17.2971 13.3374 16.9179 13.9566C16.5948 13.8475 16.2771 13.7305 15.9585 13.6089C16.2701 13.7507 16.5815 13.8857 16.8964 14.011C16.8665 14.2196 17.1394 14.5748 17.325 14.6352C18.4823 15.0055 19.5904 15.311 20.6628 15.9704C20.8537 16.0907 21.0689 16.007 21.2072 15.8633C21.6675 16.1922 22.1054 16.5484 22.5205 16.9267C21.1171 16.466 20.0529 16.5421 20.0529 16.5421C20.0529 16.5421 22.9019 17.4853 24.576 19.1956C25.4925 20.4155 26.2644 21.7619 26.9155 23.1638C26.7083 23.0959 26.4982 23.032 26.2787 22.9763C25.8717 22.8713 25.434 22.854 25.0084 22.8825C24.3595 21.3122 23.8717 19.5073 23.8717 19.5073C23.8717 19.5073 23.8717 21.0736 24.3769 22.9042C22.6523 20.6698 21.8056 18.4431 21.8056 18.4431C21.8056 18.4431 21.9871 20.3748 23.5086 23.1558C22.9838 23.304 22.6307 23.453 22.6307 23.453C22.6307 23.453 23.0727 23.4283 23.6765 23.452C23.7411 23.5651 23.8036 23.6761 23.8724 23.7932C24.0693 24.1224 24.2897 24.4186 24.5202 24.6859C23.619 24.5801 22.5192 24.6233 21.089 24.7705C22.6809 25.222 23.9603 25.0668 25.4234 25.7496C25.4327 25.7733 25.4448 25.801 25.4561 25.8237C24.1315 26.4911 23.1987 27.0651 22.7703 27.4557C23.084 27.5577 23.2991 27.7304 23.4817 27.8804C23.7647 28.1088 23.943 28.2403 24.3161 28.2403C24.6912 28.2403 24.8688 28.1088 25.1495 27.8804C25.4305 27.6513 25.779 27.3643 26.4585 27.3643C27.1372 27.3643 27.4857 27.6513 27.7665 27.8804C28.0487 28.1088 28.228 28.2403 28.6001 28.2403C28.9722 28.2403 29.1505 28.1088 29.4335 27.8804C29.7125 27.6513 30.061 27.3643 30.7397 27.3643C31.4182 27.3643 31.7667 27.6513 32.0487 27.8804C32.3307 28.1088 32.508 28.2403 32.8811 28.2403C33.2563 28.2403 33.4338 28.1088 33.7158 27.8804C33.9955 27.6513 34.345 27.3643 35.0237 27.3643C35.7035 27.3643 36.051 27.6513 36.3317 27.8804C36.6157 28.1088 36.793 28.2403 37.1661 28.2403C37.5425 28.2403 37.7188 28.1088 38.0035 27.8784C38.2835 27.6523 38.629 27.3705 39.3015 27.3663V27.3641C39.3025 27.3641 39.3045 27.3653 39.3075 27.3653C39.3085 27.3653 39.3095 27.3641 39.3135 27.3641C39.9913 27.3641 40.342 27.6511 40.6205 27.8784C40.9025 28.1068 41.082 28.2373 41.4511 28.2403C41.8193 28.2373 41.9955 28.1068 42.2753 27.8804C42.5562 27.6513 42.906 27.3643 43.5847 27.3643C44.262 27.3643 44.6117 27.6513 44.8917 27.8804C45.1747 28.1088 45.353 28.2403 45.7259 28.2403C46.098 28.2403 46.2765 28.1088 46.5595 27.8804C46.837 27.6513 47.1868 27.3643 47.8655 27.3643C48.5442 27.3643 48.8925 27.6513 49.1735 27.8804C49.4555 28.1088 49.634 28.2403 50.0071 28.2403C50.3823 28.2403 50.5593 28.1088 50.8413 27.8804C51.1212 27.6513 51.471 27.3643 52.1497 27.3643C52.8292 27.3643 53.1768 27.6513 53.4567 27.8804C53.7417 28.1088 53.919 28.2403 54.2921 28.2403C54.6673 28.2403 54.8446 28.1088 55.1296 27.8784C55.3822 27.674 55.6893 27.426 56.2409 27.3755C55.7694 26.9795 54.8398 26.4212 53.5622 25.78C53.5675 25.7698 53.5725 25.7598 53.5755 25.7493C55.0369 25.0668 56.3193 25.222 57.9102 24.7705ZM26.6988 25.222C26.4344 25.0288 26.1667 24.8169 25.9013 24.5803C25.6881 24.2626 25.4953 23.9509 25.3629 23.6784C25.3589 23.6679 25.3536 23.6579 25.3486 23.6497C25.6223 23.7103 25.887 23.7897 26.1195 23.8903C26.7171 24.1516 27.2196 24.468 27.6379 24.7965C27.312 24.9402 27.0004 25.0812 26.6988 25.222ZM27.156 23.2461C26.7666 22.3926 26.3359 21.5595 25.8584 20.7542C26.5258 21.6359 27.2587 22.6601 27.8666 23.5321C27.6409 23.4316 27.4031 23.334 27.156 23.2461ZM53.1413 20.7554C52.6638 21.5608 52.2321 22.3928 51.8434 23.2461C51.5963 23.334 51.3605 23.4316 51.133 23.5321C51.742 22.6599 52.4729 21.6359 53.1413 20.7554ZM53.0992 24.5803C52.8471 24.8054 52.5927 25.0071 52.3406 25.191C52.0405 25.0523 51.7256 24.9103 51.4005 24.7675C51.8108 24.4498 52.2999 24.1443 52.8802 23.89C53.114 23.7894 53.3766 23.7101 53.6511 23.6494C53.6468 23.6577 53.6408 23.6677 53.6378 23.6781C53.5032 23.9507 53.3144 24.2624 53.0992 24.5803ZM72.7271 28.2148C68.0145 31.3672 66.2297 36.3728 66.2297 36.3728C66.1385 36.6262 65.9909 36.6262 65.9017 36.3728C65.9017 36.3728 65.059 34.0064 64.3597 32.9143C63.1939 31.0939 61.0362 29.6117 60.3901 29.6117C57.862 29.6117 58.5887 29.7949 58.5887 29.7949C58.8481 29.8598 59.2777 29.9399 59.5441 29.9718C59.5441 29.9718 59.9635 30.0232 60.6249 30.5364C61.684 31.3582 62.6804 32.7498 63.445 34.8622C64.5594 37.9457 64.8137 39.8474 64.8732 40.1918C65.0138 41.0179 65.0548 42.3084 65.686 42.0431C67.6431 41.2223 68.4888 41.0114 68.4316 40.782C68.3741 40.5537 68.196 40.5272 68.196 40.5272C67.9304 40.489 67.7551 40.2412 67.8023 39.9779C67.8023 39.9779 68.2126 37.7318 68.9855 35.3786C70.5837 30.5074 74.3625 28.3374 75.276 27.9366C76.1885 27.5343 76.411 27.4417 77.3243 27.127C77.9751 26.9024 75.0576 26.6568 72.7271 28.2148Z" fill="#474747"/>
<path fill-rule="evenodd" clip-rule="evenodd" d="M7.92471 36.737C7.27361 36.3287 6.31918 36.122 6.31918 36.122C6.05879 36.0654 5.84435 35.8949 5.84435 35.7424C5.86895 35.7322 5.89256 35.7239 5.91415 35.7157C5.93876 35.7087 5.95935 35.7032 5.97969 35.6972C6.35609 35.5777 6.66469 35.4689 6.90549 35.372C7.14856 35.2755 7.39865 35.1325 7.65704 34.9465C7.91341 34.7591 8.1276 34.5145 8.29759 34.214C8.46683 33.9118 8.55095 33.5454 8.55095 33.1169C8.55095 32.6043 8.38271 32.1336 8.04649 31.7086C7.71228 31.2808 7.24473 30.9454 6.64109 30.7008C6.04021 30.458 5.36676 30.3344 4.62224 30.3344C3.6874 30.3344 2.7513 30.5341 1.81545 30.9289C0.877343 31.326 0.40879 32.1126 0.40879 33.2894C0.40879 33.4838 0.40879 33.4838 0.40879 33.4838C0.426367 33.5454 0.523543 33.5956 0.626243 33.5956C1.10183 33.5167 1.49555 33.4661 1.80315 33.4453C2.11175 33.4259 2.37641 33.4166 2.59863 33.4166C2.8191 33.4166 2.95017 33.4074 2.98834 33.3912C3.02826 33.3725 3.04885 33.3241 3.04885 33.2449C3.04885 33.1546 3.03856 33.0598 3.01797 32.9609C2.99964 32.8604 2.98834 32.7553 2.98834 32.6452C2.98834 31.9981 3.14929 31.5571 3.4712 31.3255C3.79211 31.0931 4.1449 30.9778 4.53235 30.9778C4.89519 30.9778 5.17416 31.0747 5.36676 31.2688C5.56161 31.4642 5.68866 31.7038 5.75119 31.9901C5.81396 32.2779 5.83229 32.5843 5.83229 32.5843C5.84761 32.8529 5.85791 33.2921 5.85791 33.5594V33.5799C5.84962 34.0346 5.79237 34.3935 5.68892 34.6578C5.58421 34.9211 5.366 35.1267 5.0338 35.275C4.69883 35.4207 4.2014 35.4951 3.54226 35.4951C3.46643 35.4908 3.39889 35.4868 3.33636 35.4839C3.27484 35.4816 3.27484 35.4816 3.27484 35.4816C3.16712 35.4804 3.08627 35.68 3.0933 35.9248C3.10158 36.1692 3.32707 36.3703 3.59374 36.3703H4.44246C4.81157 36.3703 5.18169 36.4679 5.55382 36.6653C5.92696 36.8627 6.08691 37.4625 6.08691 37.4625C6.15546 37.7205 6.20995 38.1525 6.20995 38.4198V38.7862C6.20066 39.1254 6.17103 39.4433 6.12156 39.7396C6.07134 40.0365 5.95659 40.2958 5.77705 40.52C5.59852 40.7451 5.33512 40.8576 4.9876 40.8576C4.70787 40.8576 4.25137 40.7605 3.61609 40.5654C3.26857 40.4458 2.97428 40.3443 2.73649 40.2589C2.49744 40.1746 2.28651 40.1067 2.10597 40.057C1.92443 40.0078 1.74816 39.9831 1.57289 39.9831C1.13095 39.9831 0.757819 40.1651 0.454239 40.5282C0.151915 40.8931 0 41.3498 0 41.8978C0 42.6011 0.146642 42.952 0.439927 42.952C0.469557 42.952 0.553675 42.9171 0.694291 42.8472C0.832647 42.7773 0.971003 42.7424 1.11036 42.7424C1.28965 42.7424 1.41595 42.7524 1.49178 42.7731C1.56485 42.7936 1.74414 42.8018 2.02713 42.8018C2.09267 42.8018 2.13359 42.7863 2.15117 42.7546C2.16749 42.7217 2.17578 42.6663 2.17578 42.5859C2.17578 42.5407 2.16649 42.4616 2.1469 42.3473C2.12757 42.2323 2.11727 42.1334 2.11727 42.0468C2.11727 41.7137 2.17578 41.4721 2.29555 41.3211C2.41658 41.1728 2.55921 41.097 2.72945 41.097C2.84747 41.097 3.13448 41.1669 3.58545 41.3026C4.03869 41.4404 4.51025 41.5567 5.00241 41.651C5.28113 41.7107 5.56738 41.7414 5.85841 41.7414C6.74002 41.7414 7.46695 41.4596 8.03996 40.8948C8.61423 40.331 8.90224 39.629 8.90224 38.7867C8.90174 37.8291 8.57581 37.1462 7.92471 36.737ZM19.4487 40.6298H19.3708C19.1032 40.6298 18.8234 40.4189 18.7474 40.1606L16.2092 31.4453C16.1354 31.188 16.2914 30.9783 16.5598 30.9783H16.7885C17.056 30.9783 17.2744 30.8333 17.2744 30.6576C17.2744 30.4807 17.056 30.3344 16.7885 30.3344H13.0188C12.7501 30.3344 12.5319 30.4807 12.5319 30.6576C12.5319 30.8333 12.7503 30.9783 13.0188 30.9783H13.7025C13.7231 31.1575 13.7324 31.294 13.7324 31.3896C13.7324 31.729 13.6689 32.0378 13.5375 32.3173C13.4105 32.5951 13.1837 32.9682 12.8628 33.4354C12.5432 33.9011 12.3255 34.224 12.211 34.403C11.809 35.0261 11.4501 35.6291 11.1355 36.2091C10.8186 36.7911 10.5562 37.3816 10.3523 37.9821C10.1442 38.5825 10.0427 39.1381 10.0427 39.646C10.0427 40.2292 10.2017 40.6817 10.5226 41.0034C10.8435 41.3253 11.2535 41.4861 11.7497 41.4861C12.1475 41.4861 12.5372 41.347 12.9196 41.0673C13.303 40.7887 13.6546 40.4191 13.9755 39.9627C14.2954 39.504 14.5763 38.9814 14.8212 38.3964C15.0642 37.8111 15.2415 37.1385 15.2415 37.1385C15.3093 36.8795 15.4261 36.8785 15.5009 37.1343L16.3775 40.1601C16.4523 40.4184 16.2956 40.6293 16.0269 40.6293H15.8364C15.5689 40.6293 15.3515 40.772 15.3515 40.9487C15.3515 41.1249 15.5687 41.2687 15.8364 41.2687H19.4492C19.7179 41.2687 19.9371 41.1249 19.9371 40.9487C19.9366 40.7728 19.7174 40.6298 19.4487 40.6298ZM14.4633 36.8924C14.2246 37.5156 13.9353 38.0422 13.5991 38.472C13.2588 38.901 12.9143 39.1159 12.5615 39.1159C12.2828 39.1159 12.0726 39.0417 11.9353 38.8957C11.7957 38.7475 11.7957 38.7475 11.7957 38.7475C11.7382 38.5376 11.6902 38.188 11.6902 37.9698C11.7394 37.4662 11.8971 36.9027 12.1668 36.2782C12.4342 35.6551 12.7604 35.0309 13.1438 34.4064C13.5252 33.7833 13.9589 33.1648 13.9589 33.1648C14.1128 32.947 14.2984 32.9779 14.3722 33.236L14.9249 35.2076C14.8548 35.7065 14.7011 36.269 14.4633 36.8924ZM25.2431 34.4853C25.7146 34.8108 26.1802 34.973 26.6372 34.973C27.1898 34.973 27.6451 34.8639 28.0049 34.6468C28.3657 34.4299 28.6241 34.1561 28.7818 33.8272C28.9367 33.4993 29.0158 33.1548 29.0158 32.7947C29.0158 32.4019 28.8988 32.0151 28.6693 31.6365C28.4376 31.2579 28.082 30.9451 27.6011 30.7006C27.1213 30.4577 26.534 30.3342 25.8369 30.3342C24.9706 30.3342 24.2613 30.47 23.7096 30.7385C23.1582 31.0068 22.7378 31.3876 22.4516 31.875C22.1646 32.3637 21.973 32.9217 21.8746 33.5472C21.7741 34.1729 21.7402 35.2854 21.7402 35.2854C21.7309 35.5527 21.7249 35.992 21.7249 36.2593V40.1376C21.7249 40.4072 21.5054 40.6253 21.2388 40.6253H20.9435C20.6758 40.6253 20.4566 40.7703 20.4566 40.9482C20.4566 41.1252 20.6758 41.2689 20.9435 41.2689H27.8214C28.2035 41.2689 28.4765 41.2422 28.6354 41.1908C28.7954 41.1372 28.8968 41.0333 28.945 40.8761C28.9912 40.7196 28.9993 40.514 28.9993 40.514C29.0086 40.2467 29.0158 39.8084 29.0158 39.5401V37.5892C29.0158 37.2146 28.9769 36.9496 28.8956 36.7889C28.8167 36.6294 28.7891 36.6234 28.7891 36.6234C28.5287 36.5667 28.0961 36.5196 27.8306 36.5196H27.7927C27.1469 36.5196 26.5779 36.4227 26.0847 36.2316C25.5936 36.0404 24.9694 35.6024 24.9694 35.6024C24.7509 35.4494 24.7087 35.1519 24.876 34.9428L25.2431 34.4853ZM25.7196 36.8118C25.9933 36.9661 26.2025 37.0968 26.3471 37.2007C26.4895 37.3057 26.5777 37.3983 26.6085 37.4784C26.6372 37.5585 26.6372 37.5585 26.6372 37.5585C26.6455 37.7273 26.6515 38.0861 26.6515 38.3537V39.6023C26.6515 40.0455 26.6003 40.3273 26.4958 40.4466C26.3911 40.5661 26.3911 40.5661 26.3911 40.5661C26.1664 40.5991 25.7626 40.6258 25.4952 40.6258H24.5889C24.3213 40.6258 24.1028 40.4077 24.1028 40.1381V35.6149C24.3366 35.8794 24.5591 36.0861 24.7702 36.2361C24.9817 36.3853 25.2983 36.5775 25.7196 36.8118ZM24.7027 34.2654L24.3901 34.691C24.2314 34.9071 24.1031 34.8639 24.1031 34.5966V34.1504C24.1031 33.1823 24.1892 32.4119 24.3645 31.8381C24.5377 31.2641 24.8986 30.9783 25.4449 30.9783C25.6448 30.9783 25.8357 31.0245 26.0192 31.1161C26.2025 31.2087 26.3544 31.3712 26.4734 31.6058C26.5935 31.8401 26.6517 32.1571 26.6517 32.5564C26.6517 33.1147 26.5493 33.518 26.3474 33.7638C26.1433 34.0126 25.924 34.1349 25.6903 34.1349C25.522 34.1349 25.4259 34.0867 25.4259 34.0867C25.1856 33.9694 24.8616 34.0496 24.7027 34.2654ZM40.4165 31.1872H40.7118C40.9795 31.1872 41.1979 31.0422 41.1979 30.8653C41.1979 30.6883 40.9797 30.5443 40.7118 30.5443H37.0018C36.7351 30.5443 36.5169 30.6883 36.5169 30.8653C36.5169 31.0422 36.7354 31.1872 37.0018 31.1872H37.0807C37.3481 31.1872 37.5665 31.4063 37.5665 31.6746V32.3308C37.5665 32.5993 37.4292 32.9879 37.2599 33.1958L34.4971 36.5917C34.3279 36.7993 34.1895 36.7492 34.1895 36.4809V31.6746C34.1895 31.4063 34.408 31.1872 34.6756 31.1872H34.7628C35.0292 31.1872 35.2486 31.0422 35.2486 30.8653C35.2486 30.6883 35.0292 30.5443 34.7628 30.5443H31.0455C30.7768 30.5443 30.5586 30.6883 30.5586 30.8653C30.5586 31.0422 30.777 31.1872 31.0455 31.1872H31.3408C31.6074 31.1872 31.8266 31.4063 31.8266 31.6746V40.1379C31.8266 40.4074 31.6072 40.6255 31.3408 40.6255H31.0455C30.7768 40.6255 30.5586 40.7705 30.5586 40.9485C30.5586 41.1254 30.777 41.2692 31.0455 41.2692H34.7628C35.0292 41.2692 35.2486 41.1254 35.2486 40.9485C35.2486 40.7705 35.0292 40.6255 34.7628 40.6255H34.6756C34.4082 40.6255 34.1895 40.4074 34.1895 40.1379V38.4657C34.1895 38.1984 34.3279 37.8094 34.4971 37.602L37.2579 34.2203C37.4282 34.0124 37.5665 34.0618 37.5665 34.3298V40.1376C37.5665 40.4072 37.3481 40.6253 37.0807 40.6253H37.0018C36.7351 40.6253 36.5169 40.7703 36.5169 40.9482C36.5169 41.1252 36.7354 41.2689 37.0018 41.2689H40.7118C40.9795 41.2689 41.1979 41.1252 41.1979 40.9482C41.1979 40.7703 40.9797 40.6253 40.7118 40.6253H40.4165C40.1491 40.6253 39.9316 40.4072 39.9316 40.1376V31.6744C39.9316 31.4063 40.1491 31.1872 40.4165 31.1872ZM51.7921 40.4251C51.6967 40.4251 51.5729 40.4548 51.4179 40.5185C51.264 40.5804 51.1556 40.6123 51.0908 40.6123C50.9411 40.6123 50.7588 40.2696 50.5414 39.5868C50.3269 38.9042 50.0994 38.0133 49.8604 36.9129C49.6218 35.8135 49.4174 34.7429 49.2484 33.6997C49.0802 32.6589 48.9632 31.6716 48.9632 31.6716C48.9326 31.4044 49.0985 31.1875 49.3363 31.1875C49.5711 31.1875 49.7627 31.0425 49.7627 30.8655C49.7627 30.6886 49.5445 30.5446 49.2776 30.5446H45.209C44.9421 30.5446 44.7229 30.6886 44.7229 30.8655C44.7229 31.0425 44.9421 31.1875 45.209 31.1875H45.5513C45.8978 31.1875 46.1353 31.2584 46.2626 31.3961C46.3889 31.5361 46.4512 31.6986 46.4512 31.8835C46.4512 32.2025 46.399 32.4945 46.2885 32.758C46.1785 33.0223 45.9892 33.3864 45.7215 33.8502C45.4541 34.3149 45.1954 34.7903 44.9506 35.2757C44.7035 35.7611 44.4637 36.3259 44.2247 36.9683C44.1192 37.2678 44.0311 37.6144 43.9623 38.0093C43.8925 38.4023 43.8217 38.8106 43.7541 39.2312C43.6843 39.6529 43.5974 39.9687 43.4927 40.1775C43.388 40.3874 43.2449 40.492 43.0598 40.492C42.9966 40.492 42.9167 40.48 42.8221 40.4583C42.7269 40.4369 42.6224 40.4254 42.5087 40.4254C42.3753 40.4254 42.241 40.4551 42.1097 40.5187C41.9794 40.5806 41.9118 40.6989 41.9118 40.8726C41.9118 41.2287 41.9683 41.6565 42.0801 42.1604C42.1918 42.6635 42.3322 43.0963 42.5014 43.4574C42.6706 43.8193 42.8266 44.0002 42.9707 44.0002C43.1206 44.0002 43.2346 43.9274 43.3145 43.7836C43.3933 43.6394 43.4689 43.4235 43.542 43.1362C43.6135 42.8495 43.672 42.6458 43.716 42.5265C43.9096 42.0029 44.1926 41.6628 44.5639 41.5063C44.932 41.3478 45.4917 41.3066 45.4917 41.3066C45.7572 41.2861 46.0964 41.2697 46.244 41.2697H48.0698C48.3586 41.2697 48.6079 41.2802 48.8201 41.3006C49.0305 41.3191 49.2374 41.3665 49.4385 41.4414C49.6392 41.5165 49.831 41.641 50.0123 41.8157C50.1938 41.9897 50.3375 42.2178 50.448 42.4968C50.4972 42.6109 50.5517 42.8228 50.6092 43.1312C50.6657 43.4419 50.7239 43.6643 50.7874 43.7978C50.849 43.9316 50.9657 44.0005 51.134 44.0005C51.3286 44.0005 51.5071 43.8001 51.6711 43.399C51.8353 42.998 51.9706 42.5452 52.0771 42.0443C52.1851 41.5437 52.2373 41.1771 52.2373 40.949C52.2373 40.7935 52.1951 40.6682 52.108 40.5704C52.0206 40.4733 51.9151 40.4251 51.7921 40.4251ZM47.9362 40.6258H45.7607C45.4317 40.6258 45.1826 40.6051 45.0104 40.5629C44.8391 40.5207 44.7068 40.4281 44.6169 40.2864C44.5235 40.1446 44.4773 39.9265 44.4773 39.6322C44.4773 39.1982 44.585 38.612 44.8015 37.8745C45.0187 37.1373 45.3089 36.3893 45.6738 35.6336C46.0399 34.8786 46.4316 34.2347 46.8487 33.6997C46.9338 34.1441 47.0179 34.6029 47.1051 35.0731C47.1932 35.544 47.2801 35.9955 47.3675 36.4275C47.4536 36.8595 47.599 37.4665 47.8019 38.2524C48.0068 39.038 48.2973 40.1548 48.2973 40.1548C48.3658 40.4139 48.2029 40.6258 47.9362 40.6258ZM59.7987 32.0398C59.3299 31.4812 58.8656 31.0245 58.4003 30.6679C57.9337 30.3117 57.5762 30.1328 57.3226 30.1328C57.1897 30.1328 57.0592 30.1717 56.9364 30.2481C56.8101 30.3262 56.6501 30.456 56.4535 30.6379C56.2576 30.8199 56.0964 30.9579 55.9747 31.0525C55.1546 31.6911 54.4502 32.4243 53.8639 33.2514C53.2766 34.0793 52.9843 35.0226 52.9843 36.0788C52.9843 36.5982 53.0501 37.0629 53.1834 37.4744C53.3143 37.8857 53.5041 38.2666 53.7562 38.615C54.0063 38.9634 54.28 39.2783 54.5763 39.5601C54.8718 39.8419 55.3228 40.2472 55.9287 40.7758C56.3963 41.1751 56.7049 41.4257 56.8565 41.5275C57.0072 41.6296 57.1372 41.6817 57.2417 41.6817C57.3713 41.6817 57.5044 41.6251 57.644 41.5133C57.7833 41.4012 58.0701 41.1307 58.508 40.7019C59.3281 39.8985 59.9164 39.2988 60.2722 38.9017C60.626 38.5057 60.914 38.0604 61.1322 37.5628C61.3497 37.0671 61.4604 36.4899 61.4604 35.8328C61.4604 35.2188 61.2995 34.5739 60.9808 33.8938C60.6587 33.2165 60.2662 32.5983 59.7987 32.0398ZM59.9174 37.5897C59.8582 38.004 59.6437 38.4156 59.2759 38.8239C58.9085 39.2329 58.4862 39.5272 58.0096 39.7064C57.9787 39.4368 57.9081 39.2207 57.7961 39.0562C57.6836 38.8905 57.4373 38.6212 57.0541 38.2446C56.6725 37.8683 56.3116 37.4981 55.9744 37.134C55.5018 36.6104 55.1317 36.1272 54.8663 35.683C54.6006 35.2398 54.4666 34.813 54.4666 34.4035C54.4666 34.1157 54.5401 33.805 54.6827 33.4728C54.8261 33.1426 55.0393 32.8519 55.3173 32.6045C55.5947 32.359 55.9252 32.2077 56.3084 32.1521C56.5133 32.7465 56.7769 33.2464 57.1071 33.6525C57.433 34.058 57.8411 34.4776 58.329 34.9093C58.8159 35.3396 59.1872 35.7075 59.4433 36.0119C59.698 36.3164 59.7818 36.6054 59.7818 36.6054C59.8569 36.8635 59.9172 37.2937 59.9172 37.5608V37.5897H59.9174ZM78.5181 33.8941C78.1985 33.2165 77.8038 32.5983 77.3362 32.0398C76.8699 31.4812 76.4034 31.0245 75.9378 30.6679C75.4746 30.3117 75.115 30.1328 74.8606 30.1328C74.7285 30.1328 74.598 30.1717 74.4739 30.2481C74.3509 30.3262 74.1899 30.456 73.9933 30.6379C73.7965 30.8199 73.6355 30.9579 73.5137 31.0525C72.6931 31.6911 71.989 32.4243 71.4027 33.2514C70.8164 34.0793 70.5221 35.0226 70.5221 36.0788C70.5221 36.5982 70.5889 37.0629 70.7197 37.4744C70.8521 37.8857 71.0449 38.2666 71.296 38.615C71.5451 38.9634 71.8188 39.2783 72.1143 39.5601C72.4094 39.8419 72.8616 40.2472 73.4675 40.7758C73.9351 41.1751 74.2447 41.4257 74.3973 41.5275C74.547 41.6296 74.6751 41.6817 74.7795 41.6817C74.9088 41.6817 75.0442 41.6251 75.1823 41.5133C75.3229 41.4012 75.6099 41.1307 76.0466 40.7019C76.8677 39.8985 77.455 39.2988 77.8095 38.9017C78.1654 38.5057 78.4526 38.0604 78.6711 37.5628C78.8903 37.0671 79 36.4899 79 35.8328C79 35.2191 78.8393 34.5742 78.5181 33.8941ZM77.4562 37.5897C77.3957 38.004 77.1835 38.4156 76.8154 38.8239C76.4473 39.2329 76.0252 39.5272 75.5474 39.7064C75.5185 39.4368 75.4479 39.2207 75.3349 39.0562C75.2222 38.8905 74.9751 38.6212 74.594 38.2446C74.2105 37.8683 73.8494 37.4981 73.5135 37.134C73.0396 36.6104 72.6695 36.1272 72.4051 35.683C72.1395 35.2398 72.0064 34.813 72.0064 34.4035C72.0064 34.1157 72.0779 33.805 72.2236 33.4728C72.3672 33.1426 72.5771 32.8519 72.8563 32.6045C73.1348 32.359 73.4653 32.2077 73.8484 32.1521C74.0516 32.7465 74.317 33.2464 74.6452 33.6525C74.9731 34.058 75.3801 34.4776 75.868 34.9093C76.3562 35.3396 76.7273 35.7075 76.9817 36.0119C77.2388 36.3164 77.3219 36.6054 77.3219 36.6054C77.3955 36.8635 77.456 37.2937 77.456 37.5608V37.5897H77.4562Z" fill="#A6A6A6"/>
</g>
<defs>
<clipPath id="clip0_103_21">
<rect width="79" height="44" fill="white"/>
</clipPath>
</defs>
</svg>
