<svg width="16" height="16" viewBox="0 0 16 16" fill="none" xmlns="http://www.w3.org/2000/svg">
<path d="M8.0827 3.7876C5.81149 3.7876 3.97168 5.61472 3.97168 7.87324C3.97168 8.76143 4.26351 9.59886 4.75836 10.2713L4.23813 11.7939L5.82417 11.2864C6.47128 11.7178 7.25795 11.9589 8.09538 11.9589C10.3666 11.9589 12.2191 10.1318 12.2191 7.87324C12.2064 5.61472 10.3539 3.7876 8.0827 3.7876ZM10.4935 9.56079C10.392 9.83994 9.89713 10.1064 9.68142 10.1318C9.46572 10.1571 9.46572 10.3094 8.23496 9.83994C7.01688 9.35778 6.24289 8.12701 6.17945 8.03819C6.11601 7.96206 5.6846 7.39109 5.6846 6.80742C5.6846 6.22376 5.98912 5.93193 6.10332 5.81773C6.21751 5.70354 6.3444 5.66547 6.42053 5.66547C6.49666 5.66547 6.58547 5.67816 6.64892 5.67816C6.72505 5.67816 6.81386 5.6401 6.91537 5.88117C7.01688 6.12225 7.25795 6.70592 7.28333 6.76936C7.30871 6.8328 7.33408 6.89624 7.29602 6.97237C7.25795 7.0485 7.23258 7.09926 7.18182 7.17539C7.11838 7.23883 7.05494 7.32765 7.00419 7.3784C6.94075 7.44184 6.8773 7.50528 6.95343 7.61948C7.02956 7.73367 7.27064 8.12701 7.62592 8.44422C8.0827 8.85025 8.47603 8.97713 8.59023 9.04057C8.70442 9.10401 8.78055 9.09133 8.84399 9.0152C8.92012 8.93907 9.14851 8.67261 9.22464 8.54573C9.30077 8.43153 9.38959 8.44422 9.4911 8.48228C9.60529 8.52035 10.189 8.81218 10.3158 8.87562C10.43 8.93906 10.5189 8.96444 10.5442 9.0152C10.5823 9.04057 10.5823 9.28165 10.4935 9.56079Z" fill="black"/>
<path d="M11.9778 0.00610352H4.00952C1.80174 0.00610352 0 1.80785 0 4.01562V11.9966C0 14.1917 1.80174 15.9934 4.00952 15.9934H11.9905C14.1983 15.9934 16 14.1917 16 11.9839V4.01562C15.9873 1.80785 14.1856 0.00610352 11.9778 0.00610352ZM8.08247 12.7325C7.21967 12.7325 6.4203 12.5168 5.70975 12.1235L2.99445 12.9863L3.88263 10.3852C3.43854 9.64924 3.18477 8.78644 3.18477 7.87288C3.18477 5.18295 5.37986 3.01324 8.08247 3.01324C10.7851 3.01324 12.9802 5.18295 12.9802 7.87288C12.9802 10.5628 10.7851 12.7325 8.08247 12.7325Z" fill="black"/>
</svg>
