<svg width="70" height="61" viewBox="0 0 70 61" fill="none" xmlns="http://www.w3.org/2000/svg">
<path fill-rule="evenodd" clip-rule="evenodd" d="M21.3218 0.134665L35.9387 38.916V39.3199H30.1724L26.1494 28.1434H9.52104L5.49805 39.3199H0V38.916L14.6168 0.134665H21.3218ZM11.2643 23.4304H24.5402L17.9693 5.25167L11.2643 23.4304ZM55.5172 0.134665C58.6015 0.134665 61.2835 0.673303 63.4291 1.6159C65.5747 2.5585 67.1838 4.03974 68.2566 5.79029C69.3294 7.54083 69.8658 9.69536 69.8658 11.9845C69.8658 14.4084 69.3294 16.5629 68.2566 18.4481C67.1838 20.3333 65.4406 21.9491 63.295 23.0264C61.0153 24.2383 58.3333 24.777 55.1149 24.777H48.1417V39.1853H42.6436V0H55.5172V0.134665ZM54.7126 20.064C57.931 20.064 60.2107 19.3907 61.8199 18.0441C63.4291 16.6975 64.2336 14.6776 64.2336 12.2538C64.2336 9.82999 63.5632 7.94478 62.0881 6.73286C60.613 5.52095 58.4674 4.84767 55.5172 4.84767H48.1417V20.064H54.7126Z" fill="black"/>
<path fill-rule="evenodd" clip-rule="evenodd" d="M1.87734 44.572C2.27964 44.572 2.68197 44.7067 3.08427 44.8414C3.35247 44.976 3.62067 45.2453 3.75477 45.5146C3.88887 45.784 4.02299 46.0532 4.02299 46.4572C4.02299 46.8612 3.88887 47.1305 3.75477 47.3998C3.62067 47.6691 3.35247 47.9385 3.08427 48.0731C2.81607 48.2078 2.41374 48.3425 1.87734 48.3425H0.804565V50.4969H0V44.7067H1.87734V44.572ZM1.74328 47.5345C2.14558 47.5345 2.54786 47.3998 2.81606 47.2652C3.08426 47.1305 3.21834 46.7265 3.21834 46.4572C3.21834 46.0532 3.08431 45.784 2.95021 45.6493C2.68201 45.5146 2.41379 45.38 2.01149 45.38H0.938713V47.6692H1.74328V47.5345ZM15.1532 50.2276H14.2145L12.6053 47.9385H11.8007V50.2276H10.9962V44.4374H12.8735C13.2758 44.4374 13.6781 44.572 13.9463 44.7067C14.2145 44.8413 14.4827 45.1107 14.6168 45.2453C14.7509 45.5146 14.885 45.784 14.885 46.1879C14.885 46.4572 14.8851 46.7266 14.751 46.9959C14.6169 47.2652 14.4828 47.3998 14.3487 47.5345C14.0805 47.6692 13.9463 47.8038 13.544 47.9385L15.1532 50.2276ZM11.8007 47.3998H12.7395C13.1418 47.3998 13.5441 47.2652 13.6782 47.1305C13.9464 46.9958 14.0805 46.7266 14.0805 46.3226C14.0805 45.9186 13.9463 45.784 13.8122 45.5146C13.544 45.38 13.2758 45.2453 12.8735 45.2453H11.8007V47.3998ZM24.272 50.3623C23.7356 50.3623 23.1992 50.2276 22.7969 49.9583C22.3946 49.689 22.1264 49.4197 21.8582 48.8811C21.59 48.4771 21.59 47.9385 21.59 47.2652C21.59 46.5919 21.7241 46.0533 21.9923 45.6493C22.2605 45.2453 22.5287 44.8413 22.931 44.7067C23.3333 44.4374 23.8697 44.4374 24.272 44.4374C24.8084 44.4374 25.3448 44.572 25.7471 44.8414C26.1494 45.1107 26.4176 45.38 26.6858 45.9186C26.954 46.4572 26.954 46.8612 26.954 47.5345C26.954 48.2078 26.8199 48.7464 26.5517 49.1504C26.2835 49.5543 26.0153 49.9583 25.613 50.093C25.2107 50.2276 24.8084 50.3623 24.272 50.3623ZM24.272 49.689C24.6743 49.689 25.0766 49.5544 25.3448 49.4197C25.613 49.285 25.8812 49.0157 26.0153 48.6117C26.1494 48.2078 26.2835 47.9385 26.2835 47.3998C26.2835 46.9959 26.2835 46.5919 26.1494 46.1879C26.0153 45.784 25.7471 45.5146 25.4789 45.38C25.2107 45.2453 24.8084 45.1106 24.4061 45.1106C24.0038 45.1106 23.6015 45.2453 23.3333 45.38C23.0651 45.5146 22.7969 45.784 22.6628 46.1879C22.5287 46.5919 22.3946 46.8612 22.3946 47.3998C22.3946 47.8038 22.3946 48.2078 22.5287 48.6117C22.6628 49.0157 22.931 49.285 23.1992 49.4197C23.6015 49.5544 23.8697 49.689 24.272 49.689ZM34.8659 50.3623C34.1954 50.3623 33.7931 50.2276 33.2567 49.8236L33.659 49.1504C33.7931 49.285 34.0613 49.4197 34.1954 49.4197C34.3295 49.5544 34.5976 49.5544 34.7317 49.5544C34.9999 49.5544 35.2681 49.4197 35.4022 49.285C35.5363 49.1504 35.6704 48.881 35.6704 48.4771V44.4374H36.4751V48.4771C36.4751 48.881 36.341 49.285 36.2069 49.5544C36.0728 49.8237 35.8046 49.9583 35.5364 50.093C35.4023 50.3623 35.1341 50.3623 34.8659 50.3623ZM44.7892 49.5544H47.6053V50.2276H43.9846V44.4374H47.6053V45.1106H44.7892V46.8612H47.2031L47.0689 47.5345H44.7892V49.5544ZM57.1264 50.3623C56.59 50.3623 56.0536 50.2276 55.6513 49.9583C55.249 49.689 54.9808 49.4197 54.7126 48.8811C54.5785 48.4771 54.4444 47.9385 54.4444 47.2652C54.4444 46.5919 54.5785 46.0533 54.8467 45.5146C55.1149 45.1107 55.3831 44.7067 55.7854 44.572C56.1877 44.3027 56.59 44.3027 57.1264 44.3027C57.5287 44.3027 57.7969 44.3027 58.0651 44.4374C58.3333 44.572 58.6015 44.7067 59.0038 44.8414L58.6015 45.5146C58.1992 45.2453 57.6628 45.1106 57.1264 45.1106C56.4559 45.1106 56.0536 45.2453 55.7854 45.6493C55.5172 46.0533 55.3831 46.5919 55.3831 47.2652C55.3831 47.9385 55.5172 48.6118 55.7854 49.0157C56.0536 49.4197 56.59 49.689 57.1264 49.689C57.3946 49.689 57.6628 49.689 57.931 49.5544C58.1992 49.4197 58.4674 49.4197 58.6015 49.285L58.8697 49.8236C58.6015 49.9583 58.1992 50.093 57.931 50.2276C57.7969 50.3623 57.3946 50.3623 57.1264 50.3623ZM70 44.572V45.2453H68.1226V50.3623H67.318V45.2453H65.3065V44.572H70Z" fill="black"/>
<path fill-rule="evenodd" clip-rule="evenodd" d="M1.87734 55.0751C2.27964 55.0751 2.68197 55.2097 3.08427 55.3444C3.35247 55.479 3.62067 55.7484 3.75477 56.0177C3.88887 56.287 4.02299 56.5563 4.02299 56.9603C4.02299 57.3643 3.88887 57.6336 3.75477 57.9029C3.62067 58.1722 3.35247 58.4415 3.08427 58.5762C2.81607 58.7108 2.41374 58.8455 1.87734 58.8455H0.804564V61H0V55.2097H1.87734V55.0751ZM1.74328 57.9029C2.14558 57.9029 2.54786 57.7682 2.81606 57.6336C3.08426 57.4989 3.21834 57.0949 3.21834 56.8256C3.21834 56.4217 3.08431 56.1523 2.95021 56.0177C2.68201 55.883 2.41379 55.7484 2.01149 55.7484H0.938713V58.0375H1.74328V57.9029ZM11.8007 60.0574H14.6168V60.7307H10.9962V54.9404H11.8007V60.0574ZM24.6743 55.0751L26.8199 60.7307H26.0153L25.4789 59.1148H23.0651L22.5287 60.7307H21.7241L23.8697 55.0751H24.6743ZM23.1992 58.5762H25.2107L24.272 55.883L23.1992 58.5762ZM37.5479 55.0751V60.8653H36.6092L34.0612 57.095L33.9272 56.9603C33.9272 56.9603 33.9272 56.8256 33.7931 56.8256C33.7931 56.691 33.6589 56.6909 33.6589 56.5563C33.6589 56.4216 33.5249 56.4217 33.5249 56.287V60.8653H32.7202V55.0751H33.5249L36.0727 58.8455C36.0727 58.8455 36.2069 58.9802 36.2069 59.1148C36.341 59.2495 36.3409 59.3841 36.3409 59.3841C36.3409 59.5188 36.4751 59.5188 36.4751 59.6534V55.0751H37.5479Z" fill="black"/>
</svg>
