<svg width="16" height="16" viewBox="0 0 16 16" fill="none" xmlns="http://www.w3.org/2000/svg">
<path d="M11.9873 0H4C1.80317 0 0 1.80317 0 4.0127V12C0 14.1968 1.80317 16 4 16H11.9873C14.1968 16 16 14.1968 16 11.9873V4.0127C16 1.80317 14.1968 0 11.9873 0ZM8.8 10.2222C8.16508 10.2222 7.55556 9.89206 7.35238 9.51111C7.35238 9.51111 7.00952 10.8317 6.93333 11.0857C6.67937 11.9873 5.91746 12.8889 5.86667 12.9651C5.82857 13.0159 5.73968 13.0032 5.72698 12.927C5.71429 12.8127 5.52381 11.6698 5.73968 10.7429C5.85397 10.273 6.50159 7.61905 6.50159 7.61905C6.50159 7.61905 6.31111 7.25079 6.31111 6.71746C6.31111 5.86667 6.81905 5.23175 7.45397 5.23175C7.9873 5.23175 8.25397 5.6254 8.25397 6.09524C8.25397 6.61587 7.91111 7.40318 7.73333 8.12698C7.58095 8.73651 8.05079 9.23175 8.67302 9.23175C9.79048 9.23175 10.5524 7.83492 10.5524 6.18413C10.5524 4.92698 9.67619 3.9873 8.08889 3.9873C6.29841 3.9873 5.16825 5.28254 5.16825 6.73016C5.16825 7.2254 5.32064 7.58095 5.5619 7.86032C5.67619 7.9873 5.68889 8.0381 5.65079 8.17778C5.6254 8.27937 5.56191 8.53333 5.52381 8.63492C5.48571 8.7746 5.35873 8.8381 5.23175 8.7746C4.40635 8.44444 4.0254 7.56825 4.0254 6.57778C4.0254 4.95238 5.44762 2.99683 8.25397 2.99683C10.5143 2.99683 12 4.58413 12 6.28571C11.9873 8.54603 10.7048 10.2222 8.8 10.2222Z" fill="black"/>
</svg>
