<svg width="16" height="16" viewBox="0 0 16 16" fill="none" xmlns="http://www.w3.org/2000/svg">
<path d="M11.9778 0.00561523H4.00952C1.80174 0.00561523 0 1.80736 0 4.01513V11.9961C0 14.1912 1.80174 15.9929 4.00952 15.9929H11.9905C14.1983 15.9929 16 14.1912 16 11.9834V4.01513C15.9873 1.80736 14.1856 0.00561523 11.9778 0.00561523ZM5.3291 12.9477H3.0452V6.34979H5.3291V12.9477ZM4.17447 5.33472C3.52736 5.33472 3.00714 4.8145 3.00714 4.16739C3.00714 3.52029 3.52736 3.00006 4.17447 3.00006C4.82157 3.00006 5.34179 3.52029 5.34179 4.16739C5.3291 4.8145 4.80888 5.33472 4.17447 5.33472ZM12.9548 12.9477H12.9421H11.0389V9.75026C11.0389 8.97627 10.9374 7.98658 9.88422 7.98658C8.80571 7.98658 8.62807 8.82401 8.62807 9.69951V12.9477H6.72482V6.34979H8.50119V7.23797H8.55194C8.83109 6.73044 9.47819 6.3371 10.4933 6.3371C12.5868 6.3371 12.9548 7.54249 12.9548 9.33155V12.9477Z" fill="black"/>
</svg>
