<svg width="261" height="44" viewBox="0 0 261 44" fill="none" xmlns="http://www.w3.org/2000/svg">
<path d="M44.0866 35.1997L35.2701 43.9978L2.65562 44L0 41.3488V8.79982L8.81785 0H41.4314L44.0866 2.64988V35.1997Z" fill="#8A8A8A"/>
<path d="M41.431 0L31.5151 9.89614V24.3408L23.3923 13.2011H6.26981V16.7016H11.3171V30.0543L0.000488281 41.3488V44L2.65522 43.9978L15.1205 31.5573V16.7016H20.166V30.7985H23.9211V19.6583L32.0443 30.7985H35.2697V11.4488L44.0866 2.64988L44.0862 0H41.431Z" fill="white"/>
<path d="M58.1937 17.4746H52.9038V13.2006H68.3723V17.4746H63.0828V30.798H58.1942V17.4746H58.1937Z" fill="black"/>
<path d="M70.9419 13.201H85.1239V17.3473H75.7785V20.0149H84.2418V23.8622H75.7785V26.6514H85.2505V30.7989H70.9419V13.201Z" fill="black"/>
<path d="M93.2972 21.8492L87.5016 13.201H93.1208L96.2439 18.1531L99.3945 13.201H104.884L99.0924 21.7991L105.138 30.7985H99.5194L96.1421 25.4947L92.7426 30.7985H87.2505L93.2972 21.8492Z" fill="black"/>
<path d="M107.449 13.201H112.336V19.7878H118.609V13.201H123.497V30.7985H118.609V24.1106H112.336V30.7985H107.449V13.201Z" fill="black"/>
<path d="M126.432 22C126.432 16.9455 130.513 12.8481 135.956 12.8481C141.396 12.8481 145.427 16.8963 145.427 22C145.427 27.0536 141.346 31.1515 135.905 31.1515C130.461 31.152 126.432 27.1024 126.432 22ZM140.438 22C140.438 19.4601 138.6 17.2466 135.905 17.2466C133.232 17.2466 131.445 19.4091 131.445 22C131.445 24.5399 133.285 26.7494 135.955 26.7494C138.649 26.7498 140.438 24.5896 140.438 22Z" fill="black"/>
<path d="M148.384 13.201H153.274V19.7878H159.544V13.201H164.434V30.7985H159.544V24.1106H153.274V30.7985H148.384V13.201Z" fill="black"/>
<path d="M168.235 13.201H173.073V23.1052L179.902 13.201H184.46V30.7985H179.623V20.8939L172.795 30.7985H168.235V13.201Z" fill="black"/>
<path d="M188.265 13.201H193.15V20.3418L199.222 13.201H205.016L198.341 20.7675L205.242 30.7989H199.374L194.941 24.2636L193.15 26.2482V30.7994H188.265V13.201Z" fill="black"/>
<path d="M205.28 22C205.28 16.9455 209.36 12.8481 214.801 12.8481C220.243 12.8481 224.275 16.8963 224.275 22C224.275 27.0536 220.192 31.1515 214.752 31.1515C209.309 31.152 205.28 27.1024 205.28 22ZM219.284 22C219.284 19.4601 217.448 17.2466 214.752 17.2466C212.08 17.2466 210.293 19.4091 210.293 22C210.293 24.5399 212.13 26.7494 214.801 26.7494C217.497 26.7498 219.284 24.5896 219.284 22Z" fill="black"/>
<path d="M246.11 13.201H250.997V18.7301H253.668C257.9 18.7301 261 20.7431 261 24.7128C261 28.5118 258.229 30.7989 253.921 30.7989H246.11V13.201ZM253.543 26.7015C255.154 26.7015 256.112 25.9719 256.112 24.5896C256.112 23.358 255.154 22.553 253.567 22.553H250.997V26.7015H253.543Z" fill="black"/>
<path d="M228.601 13.201V20.921C228.601 22.7455 228.416 25.3847 227.21 26.3183C226.643 26.7556 225.708 27.0909 225.116 27.0909V31.2398H225.58C227.27 31.2398 229.163 30.5616 229.891 30.1009C232.838 28.2333 233.203 24.6809 233.203 20.6682V17.4746H237.421V30.798H242.308V13.201H228.601Z" fill="black"/>
</svg>
