<svg width="286" height="182" viewBox="0 0 286 182" fill="none" xmlns="http://www.w3.org/2000/svg">
<path d="M262.165 158.871H166.543C162.498 158.871 159.248 162.123 159.248 166.171V182H269.387V166.171C269.387 162.123 266.137 158.871 262.165 158.871ZM265.054 177.663H163.582V166.171C163.582 164.508 164.882 163.207 166.543 163.207H169.865V171.664H174.198V163.207H180.482V167.472H184.815V163.207H191.098V171.664H195.432V163.207H201.715V167.472H206.048V163.207H212.332V171.664H216.665V163.207H222.948V167.472H227.282V163.207H233.565V171.664H237.898V163.207H244.182V167.472H248.515V163.207H254.798V171.664H259.132V163.207H262.454C264.115 163.207 265.415 164.508 265.415 166.171V177.663H265.054ZM153.615 44.8856C153.615 28.2613 140.182 14.8173 123.571 14.8173C106.96 14.8173 93.5262 28.2613 93.5262 44.8856C93.5262 51.969 95.9818 58.5465 100.098 63.6783V63.606C100.821 64.5457 101.615 65.413 102.41 66.2804C104.071 67.9428 107.321 70.6894 109.848 68.9547C113.171 66.6418 111.293 63.2446 111.293 60.3535C111.293 55.583 116.276 53.1255 120.465 57.2454C126.46 63.2446 126.387 63.1724 130.576 67.3646C132.382 69.1716 136.282 73.7252 142.926 67.7983C149.498 62.2327 153.615 54.0651 153.615 44.8856ZM134.476 34.8388C136.282 33.0318 139.243 33.0318 141.121 34.8388C142.998 36.6457 142.926 39.6092 141.121 41.4885C139.315 43.2955 136.354 43.2955 134.476 41.4885C132.598 39.6815 132.598 36.718 134.476 34.8388ZM111.293 39.7538C109.487 41.5608 106.526 41.5608 104.648 39.7538C102.843 37.9468 102.843 34.9833 104.648 33.104C106.454 31.2971 109.415 31.2971 111.293 33.104C113.171 34.911 113.171 37.9468 111.293 39.7538ZM126.171 32.3813C124.365 34.1882 121.404 34.1882 119.526 32.3813C117.721 30.5743 117.721 27.6108 119.526 25.7315C121.332 23.9245 124.293 23.9245 126.171 25.7315C128.048 27.6108 128.048 30.5743 126.171 32.3813ZM134.26 51.969C136.065 50.162 139.026 50.162 140.904 51.969C142.782 53.776 142.71 56.7395 140.904 58.6187C139.098 60.4257 136.137 60.4257 134.26 58.6187C132.382 56.8118 132.382 53.8483 134.26 51.969ZM151.16 116.081C151.16 115.936 151.16 115.792 151.087 115.72C151.087 115.575 151.015 115.503 150.943 115.358C150.943 115.358 150.943 115.286 150.871 115.286C150.798 115.214 150.798 115.141 150.726 115.069L150.654 114.997C150.582 114.925 150.51 114.78 150.437 114.708L135.921 100.18C135.848 100.107 135.704 100.035 135.632 99.9627L135.56 99.8904C135.487 99.8181 135.415 99.8181 135.271 99.7458C135.271 99.7458 135.198 99.7458 135.198 99.6735C134.982 99.6013 134.693 99.529 134.476 99.529H71.9317L71.1373 83.4106C71.0651 82.3987 70.8484 81.4591 70.4151 80.5917L61.6762 62.5941H70.3428C71.5706 62.5941 72.5095 61.6545 72.5095 60.4257C72.5095 59.197 71.5706 58.2573 70.3428 58.2573H59.5095L52.1428 43.1509C54.3095 40.7657 55.6817 37.6577 55.6817 34.1882C55.6817 27.6831 50.9151 22.2621 44.704 21.2502V2.31295C44.704 1.08419 43.7651 0.144559 42.5373 0.144559C41.3095 0.144559 40.3706 1.08419 40.3706 2.31295V21.2502C34.1595 22.2621 29.3928 27.6831 29.3928 34.1882C29.3928 37.6577 30.7651 40.838 32.9317 43.1509L25.5651 58.2573H14.4428C13.2151 58.2573 12.2762 59.197 12.2762 60.4257C12.2762 61.6545 13.2151 62.5941 14.4428 62.5941H23.5428L14.804 80.5917C14.3706 81.4591 14.154 82.471 14.0817 83.4106L12.7095 110.515L0.21507 136.175C-0.290486 137.259 0.142847 138.56 1.22618 139.066C1.51507 139.21 1.87618 139.283 2.16507 139.283C2.95951 139.283 3.75396 138.849 4.11507 138.054L40.8762 62.5941H44.2706L62.254 99.529H46.7262C45.4984 99.529 44.5595 100.469 44.5595 101.697V106.757H39.504C38.2762 106.757 37.3373 107.697 37.3373 108.925V114.057H32.2817C31.054 114.057 30.1151 114.997 30.1151 116.226V179.832C30.1151 181.06 31.054 182 32.2817 182H134.548C135.776 182 136.715 181.06 136.715 179.832V174.7H141.771C142.998 174.7 143.937 173.76 143.937 172.531V167.472H148.993C150.221 167.472 151.16 166.532 151.16 165.303V116.081ZM42.6095 38.1636C40.3706 38.1636 38.4928 36.2844 38.4928 34.0437C38.4928 31.803 40.3706 29.9237 42.6095 29.9237C44.8484 29.9237 46.7262 31.803 46.7262 34.0437C46.7262 36.2844 44.8484 38.1636 42.6095 38.1636ZM143.793 113.913H136.643V106.757L143.793 113.913ZM132.31 177.519H34.4484V118.249H37.3373V172.387C37.3373 173.616 38.2762 174.555 39.504 174.555H132.31V177.519ZM139.604 170.218H41.6706V110.949H44.5595V165.159C44.5595 166.388 45.4984 167.327 46.7262 167.327H139.532V170.218H139.604ZM142.06 162.99C141.987 162.99 141.915 162.99 141.771 162.99C141.626 162.99 141.626 162.99 141.482 162.99H48.9651V103.721H64.4206L80.3817 136.464C80.8873 137.548 82.1873 137.982 83.2706 137.476C84.354 136.97 84.7873 135.669 84.2817 134.585L72.5095 110.371L72.1484 103.721H132.31V116.081C132.31 117.31 133.248 118.249 134.476 118.249H146.826V162.99H142.06ZM201.643 96.421L213.054 81.3145V99.1676C209.01 99.023 205.182 98.0834 201.643 96.421ZM190.954 63.0278H213.054V76.7609L199.187 95.1199C196.01 93.313 193.265 90.9277 190.954 88.1088V63.0278ZM190.954 92.2288C194.06 95.3368 197.743 97.7943 201.86 99.529H190.954V92.2288ZM190.954 52.9087L207.998 60.2812H190.954V52.9087ZM183.948 68.7379C183.948 63.1001 185.465 57.8237 188.137 53.2701V84.1334C185.465 79.6521 183.948 74.3757 183.948 68.7379ZM244.976 68.7379C244.976 74.2311 243.532 79.2907 241.004 83.772V53.7037C243.46 58.1851 244.976 63.2446 244.976 68.7379ZM221.215 60.2812L238.26 52.9087V60.2812H221.215ZM196.154 52.1859H213.054V59.4861L196.154 52.1859ZM238.043 49.4392C237.971 49.4392 237.898 49.4392 237.826 49.4392H191.387C191.243 49.4392 191.026 49.4392 190.882 49.5115C196.443 42.645 204.965 38.2359 214.498 38.2359C223.96 38.2359 232.482 42.5727 238.043 49.4392ZM285.854 22.2621C285.493 21.467 284.698 20.9611 283.832 20.9611H191.604V12.4321C191.604 5.56553 186.043 0 179.182 0H60.8095C59.9428 0 59.1484 0.505957 58.7873 1.30103C58.4262 2.09611 58.6429 3.03574 59.2206 3.68626L74.9651 19.5878C76.4817 21.1056 77.2762 23.1295 77.2762 25.2979V73.5083C77.2762 80.3749 82.8373 85.9404 89.6984 85.9404H162.498V105.962C162.498 112.828 168.06 118.394 174.921 118.394H254.871C261.732 118.394 267.293 112.828 267.293 105.962V46.1867C267.293 44.0183 268.087 41.9944 269.604 40.4766L285.348 24.5751C285.998 23.9968 286.143 23.0572 285.854 22.2621ZM162.498 33.3209V81.6037H89.7706C85.2929 81.6037 81.6817 77.9897 81.6817 73.5083V25.2979C81.6817 21.973 80.3817 18.9373 78.0706 16.552L65.9373 4.33677H179.11C183.587 4.33677 187.198 7.95076 187.198 12.4321V20.9611H174.848C168.06 20.9611 162.498 26.5266 162.498 33.3209ZM241.004 88.7593V102.276H188.21V89.1207C183.876 83.4829 181.276 76.4718 181.276 68.8102C181.276 50.4511 196.226 35.5616 214.498 35.5616C232.843 35.5616 247.721 50.5234 247.721 68.8102C247.721 76.255 245.193 83.1938 241.004 88.7593ZM232.987 52.1859L215.871 59.6307V52.1859H232.987ZM227.065 99.529C231.254 97.7943 235.082 95.1922 238.187 92.0119V99.529H227.065ZM215.798 63.0278H238.187V87.8197C235.876 90.7109 232.987 93.1684 229.737 95.1199L215.798 76.6164V63.0278ZM227.354 96.421C223.815 98.0834 219.987 99.0953 215.871 99.2399V81.17L227.354 96.421ZM263.61 135.163H258.698C257.615 134.079 256.243 133.356 254.654 133.139V133.067C254.654 128.658 251.043 125.044 246.637 125.044H219.987C218.976 125.044 218.182 125.839 218.182 126.851C218.182 127.863 218.976 128.658 219.987 128.658H246.637C249.021 128.658 251.043 130.609 251.043 133.067H236.887H233.854H171.454H169.648H166.037L158.454 140.656L166.037 148.245H169.648H171.454H233.854H236.887H253.715C255.665 148.245 257.471 147.45 258.698 146.149H263.61C266.643 146.149 269.098 143.692 269.098 140.656C269.098 137.62 266.643 135.163 263.61 135.163ZM163.582 140.656L167.554 136.681H167.843V144.631H167.554L163.582 140.656ZM256.965 141.379C256.965 143.186 255.521 144.704 253.643 144.704H237.465V136.753H253.643C255.448 136.753 256.965 138.199 256.965 140.078V141.379Z" fill="#141413"/>
</svg>
