<svg width="285" height="182" viewBox="0 0 285 182" fill="none" xmlns="http://www.w3.org/2000/svg">
<g clip-path="url(#clip0_151_1189)">
<path d="M37.5278 72.7563L35.7192 71.7367C35.1164 71.4454 34.7396 70.8628 34.6642 70.2073C34.5889 69.5518 34.7396 68.8964 35.2671 68.4594L36.6989 67.0028C36.925 66.7843 36.9249 66.493 36.7742 66.2745L34.815 63.07C34.6642 62.8515 34.3628 62.7059 34.1367 62.7787L32.1775 63.2885C31.4992 63.4342 30.821 63.2885 30.2935 62.9244C29.766 62.5602 29.4646 61.9776 29.4646 61.3221L29.3893 59.3557C29.3893 59.0644 29.1632 58.8459 28.9371 58.7731L25.2446 57.8263C24.9432 57.7535 24.6418 57.972 24.5664 58.1177L23.5114 59.8655C23.21 60.4482 22.6071 60.8123 21.9289 60.8852C21.2507 60.958 20.5725 60.8123 20.1204 60.3025L18.6132 58.9188C18.3871 58.7731 18.0857 58.7003 17.8596 58.8459L14.5439 60.7395C14.3179 60.8852 14.1672 61.1765 14.2425 61.4678L14.77 63.3613C14.9207 64.0168 14.77 64.6723 14.3932 65.1821C14.0164 65.6919 13.3382 65.9832 12.7354 65.9832L10.7007 66.056C10.3993 66.056 10.1732 66.2745 10.0979 66.493L9.11824 70.1345C9.04288 70.3529 9.19359 70.6443 9.41966 70.7899L11.2282 71.8095C11.8311 72.1008 12.2079 72.6835 12.2832 73.3389C12.3586 73.9944 12.1325 74.577 11.6804 75.0868L10.2486 76.5434C10.0979 76.7619 10.0225 77.0532 10.1732 77.2717L12.1325 80.4762C12.2832 80.6947 12.5847 80.8403 12.8107 80.7675L14.8454 80.2577C15.5236 80.112 16.2018 80.2577 16.7293 80.6219C17.2568 80.986 17.5582 81.5686 17.6336 82.2241L17.7089 84.2633C17.7089 84.5546 17.935 84.7731 18.1611 84.8459L21.8536 85.7927C22.155 85.8656 22.4564 85.7199 22.5318 85.5014L23.5868 83.7535C23.8882 83.1709 24.4911 82.8067 25.1693 82.7339C25.8475 82.6611 26.5257 82.8796 26.9778 83.3165L28.485 84.7003C28.711 84.8459 29.0125 84.9188 29.2385 84.7731L32.5542 82.8796C32.7803 82.7339 32.931 82.4426 32.8557 82.2241L32.3282 80.2577C32.1775 79.6751 32.3282 79.0196 32.705 78.5098C33.0817 78 33.6846 77.7087 34.3628 77.6359L36.4728 77.563C36.7742 77.563 37.0003 77.3445 37.0757 77.1261L38.0553 73.4846C37.9046 73.1933 37.8292 72.902 37.5278 72.7563ZM23.2853 76.6891C19.5175 76.6163 17.2568 72.8291 18.9146 69.5518C19.7436 67.9496 21.5521 66.8571 23.4361 66.93C27.2039 67.0028 29.4646 70.7899 27.8068 74.0672C26.9778 75.6695 25.1693 76.7619 23.2853 76.6891Z" fill="#141413"/>
<path d="M59.4565 77.1261C59.0797 77.1261 58.703 77.0532 58.4015 76.8347L52.9758 73.9944C52.1469 73.5574 51.6194 72.6106 51.8455 71.6639C51.9962 70.7171 52.8251 69.9888 53.8048 69.916L60.5869 69.042C61.7926 68.8964 62.9983 69.6975 63.149 70.9356C63.2997 71.8824 62.6969 72.8291 61.8679 73.1933V74.9412C61.8679 75.7423 61.4158 76.3978 60.7376 76.8347C60.2854 77.0532 59.9087 77.1261 59.4565 77.1261Z" fill="#141413"/>
<path d="M55.6138 42.9692L53.5792 42.6779C52.901 42.605 52.3735 42.2409 51.9967 41.6583C51.6199 41.0756 51.6199 40.4202 51.846 39.8375L52.5996 37.944C52.6749 37.7255 52.5996 37.3613 52.3735 37.2157L49.2839 35.0308C49.0578 34.8852 48.7564 34.8852 48.5303 35.0308L46.8724 36.1961C46.3449 36.5602 45.6667 36.7059 44.9885 36.5602C44.3857 36.4146 43.8582 35.9776 43.5567 35.395L42.7278 33.5742C42.6524 33.3557 42.351 33.2101 42.0496 33.2101L38.2064 33.7199C37.905 33.7927 37.7542 34.084 37.6789 34.2297L37.3775 36.1961C37.3021 36.8515 36.9253 37.3613 36.3225 37.7255C35.7196 38.0896 35.0414 38.0896 34.4385 37.8711L32.4793 37.1429C32.2532 37.07 31.9518 37.1429 31.7257 37.3613L29.3896 40.3473C29.2389 40.5658 29.2389 40.8571 29.3896 41.0756L30.6707 42.6779C31.0475 43.1877 31.1982 43.8431 31.0475 44.4986C30.8968 45.1541 30.4446 45.6639 29.8418 45.8824L27.9578 46.6835C27.7318 46.7563 27.5811 47.0476 27.5811 47.3389L28.1086 51.0532C28.1086 51.3445 28.41 51.563 28.6361 51.563L30.746 51.8543C31.4243 51.9272 31.9518 52.2913 32.3285 52.874C32.63 53.4566 32.7053 54.112 32.4793 54.6947L31.7257 56.5882C31.6503 56.8067 31.7257 57.098 31.9518 57.3165L35.0414 59.5742C35.2675 59.7199 35.5689 59.7199 35.795 59.5742L37.4528 58.3361C37.9803 57.972 38.6585 57.8263 39.3367 57.972C40.015 58.1176 40.5424 58.5546 40.7685 59.1373L41.5974 60.958C41.6728 61.1765 41.9742 61.395 42.2757 61.3221L46.1189 60.8123C46.4203 60.7395 46.6464 60.521 46.6464 60.3025L46.9478 58.3361C47.0231 57.6807 47.3999 57.1709 48.0028 56.8067C48.6056 56.5154 49.2839 56.4426 49.8867 56.6611L51.846 57.3894C52.0721 57.4622 52.3735 57.3894 52.5996 57.1709L54.9356 54.1849C55.0863 53.9664 55.0863 53.6751 54.9356 53.4566L53.6546 51.8543C53.2778 51.3445 53.1271 50.6891 53.2778 50.1064C53.4285 49.5238 53.8806 48.9412 54.4835 48.7227L56.3674 47.9216C56.5935 47.8487 56.7442 47.5574 56.7442 47.2661L56.2167 43.5518C56.1413 43.2605 55.9153 43.042 55.6138 42.9692ZM43.9335 51.8543C40.4671 53.1653 36.7746 50.5434 37.076 46.902C37.2267 45.0812 38.5078 43.479 40.241 42.8235C43.7074 41.5126 47.3999 44.1345 47.0985 47.7759C47.0231 49.5966 45.7421 51.2717 43.9335 51.8543Z" fill="#141413"/>
<path d="M129.087 98.1008C128.484 98.1008 127.956 97.8824 127.504 97.4454L124.49 94.5322C123.585 93.6583 123.585 92.2745 124.49 91.4734C125.394 90.5994 126.826 90.5994 127.655 91.4734L129.011 92.7843L134.512 87.4678C135.416 86.5938 136.848 86.5938 137.677 87.4678C138.581 88.3417 138.581 89.7255 137.677 90.5266L130.594 97.3725C130.217 97.8824 129.614 98.1008 129.087 98.1008Z" fill="#141413"/>
<path d="M172.341 85.0644C169.779 85.0644 167.443 86.3754 166.162 88.3417H157.948C156.215 88.3417 154.858 87.0308 154.858 85.3557V62.6331C154.858 60.958 156.215 59.6471 157.948 59.6471H165.71C166.915 62.0504 169.477 63.6527 172.341 63.6527C176.41 63.6527 179.801 60.4482 179.801 56.4426C179.801 53.2381 177.616 50.5434 174.602 49.5966C174.602 42.2409 174.602 31.098 174.602 21.7759C174.602 17.7703 171.211 14.4202 167.066 14.4202L154.481 14.3473C152.447 14.3473 150.487 15.1485 149.131 16.5322L138.129 27.1653C136.471 28.7675 135.491 30.9524 135.491 33.2829V39.619C133.231 40.3473 131.422 42.0952 130.669 44.2801L126.072 44.2073H125.996C124.565 44.2073 123.284 44.7171 122.304 45.6639C121.324 46.6106 120.721 47.9216 120.721 49.3053V61.2493C120.721 65.9832 117.18 69.9888 112.508 70.7899C111.528 67.9496 108.74 65.9832 105.499 65.9832C101.43 65.9832 98.0391 69.1877 98.0391 73.1933C98.0391 77.1261 101.355 80.4034 105.499 80.4034C108.89 80.4034 111.754 78.2185 112.658 75.2325C119.817 74.2857 125.318 68.3866 125.318 61.2493V49.3053C125.318 49.014 125.469 48.8683 125.544 48.7955C125.62 48.7227 125.846 48.577 126.072 48.577L130.744 48.6499C131.724 51.563 134.512 53.6751 137.828 53.6751C141.897 53.6751 145.288 50.4706 145.288 46.465C145.288 43.2605 143.103 40.5658 140.088 39.619V33.2829C140.088 32.1905 140.54 31.098 141.369 30.2969L152.371 19.6639C152.974 19.0812 153.728 18.7899 154.557 18.7899L167.141 18.8627C168.799 18.8627 170.231 20.1737 170.231 21.8487C170.231 31.1709 170.231 42.3866 170.231 49.6695C167.594 50.4706 165.634 52.6555 165.182 55.3501H158.099C153.879 55.3501 150.487 58.6274 150.487 62.7059V85.4286C150.487 89.507 153.879 92.7843 158.099 92.7843H165.107C165.257 95.8431 167.443 98.3922 170.382 99.2661V115.434C170.382 117.109 169.025 118.42 167.292 118.42H159.982C157.194 118.42 154.557 117.328 152.597 115.361C149.583 112.303 144.61 107.423 141.068 104.218C144.534 101.451 146.72 97.2997 146.72 92.6387C146.72 84.3361 139.711 77.563 131.121 77.563C122.53 77.563 115.522 84.3361 115.522 92.6387C115.522 100.941 122.53 107.714 131.121 107.714C133.231 107.714 135.341 107.277 137.149 106.549C137.225 106.695 137.375 106.84 137.451 106.913C140.917 110.118 146.192 115.216 149.282 118.347C152.07 121.188 155.913 122.79 159.907 122.79H166.991C171.211 122.79 174.602 119.513 174.602 115.434V99.1933C177.541 98.2465 179.726 95.5518 179.726 92.3474C179.726 88.2689 176.41 85.0644 172.341 85.0644ZM105.349 75.9608C103.766 75.9608 102.41 74.7227 102.41 73.1204C102.41 71.5182 103.691 70.2801 105.349 70.2801C106.931 70.2801 108.288 71.5182 108.288 73.1204C108.288 74.7227 106.931 75.9608 105.349 75.9608ZM137.677 49.2325C136.094 49.2325 134.738 47.9944 134.738 46.3922C134.738 44.7899 136.019 43.5518 137.677 43.5518C139.259 43.5518 140.616 44.7899 140.616 46.3922C140.616 47.9944 139.259 49.2325 137.677 49.2325ZM172.341 53.6022C173.924 53.6022 175.28 54.8403 175.28 56.4426C175.28 58.0448 173.999 59.2829 172.341 59.2829C170.683 59.2829 169.402 58.0448 169.402 56.4426C169.402 54.8403 170.683 53.6022 172.341 53.6022ZM120.043 92.493C120.043 86.5938 125.017 81.7871 131.121 81.7871C137.225 81.7871 142.198 86.5938 142.198 92.493C142.198 98.3922 137.225 103.199 131.121 103.199C125.017 103.199 120.043 98.3922 120.043 92.493ZM172.341 95.042C170.759 95.042 169.402 93.8039 169.402 92.2017C169.402 90.5994 170.683 89.3614 172.341 89.3614C173.999 89.3614 175.28 90.5994 175.28 92.2017C175.28 93.8039 173.924 95.042 172.341 95.042Z" fill="#141413"/>
<path d="M282.739 177.557H253.274V135.462C272.114 125.63 284.924 106.331 284.924 84.2633C284.924 59.8655 269.401 38.5266 246.417 30.0056C246.568 29.423 246.643 28.7675 246.643 28.112C246.643 22.9412 242.272 18.6443 236.847 18.6443C234.435 18.6443 232.174 19.5182 230.441 20.9748V15.2213C230.441 13.9832 229.462 13.0364 228.181 13.0364H224.036V2.62185C224.036 1.38375 223.056 0.436974 221.775 0.436974H211.301C210.02 0.436974 209.04 1.38375 209.04 2.62185V13.0364H204.895C203.614 13.0364 202.635 13.9832 202.635 15.2213V90.5266C202.635 91.7647 203.614 92.7115 204.895 92.7115H209.04V106.913C209.04 108.151 210.02 109.098 211.301 109.098H221.775C223.056 109.098 224.036 108.151 224.036 106.913V92.7115H228.181C229.462 92.7115 230.441 91.7647 230.441 90.5266V35.2493C232.174 36.7059 234.36 37.5798 236.847 37.5798C240.012 37.5798 242.8 36.1232 244.608 33.8655C266.085 41.7311 280.629 61.6134 280.629 84.3361C280.629 114.123 255.535 138.375 224.714 138.375C222.679 138.375 220.72 138.303 218.686 138.084V121.552H232.777C234.058 121.552 235.038 120.605 235.038 119.367C235.038 118.129 234.058 117.182 232.777 117.182H200.223C198.942 117.182 197.962 118.129 197.962 119.367C197.962 120.605 198.942 121.552 200.223 121.552H214.315V139.905C214.315 140.924 215.068 141.798 216.199 141.944C218.987 142.308 221.851 142.527 224.639 142.527C233.154 142.527 241.217 140.779 248.527 137.72V177.63H23.3603C22.0792 177.63 21.0996 178.577 21.0996 179.815C21.0996 181.053 22.0792 182 23.3603 182H282.739C284.02 182 285 181.053 285 179.815C285 178.577 284.02 177.557 282.739 177.557ZM219.514 104.655H213.561V92.6387H219.514V104.655ZM219.514 12.9636H213.561V4.73389H219.514V12.9636ZM236.847 33.9384C233.456 33.9384 230.743 31.3165 230.743 28.0392C230.743 24.7619 233.456 22.1401 236.847 22.1401C240.238 22.1401 242.951 24.7619 242.951 28.0392C242.951 31.3165 240.238 33.9384 236.847 33.9384Z" fill="#141413"/>
<path d="M175.205 0H166.237H157.345H146.795H12.9614C5.80249 0 0 5.60784 0 12.5266V179.742C0 180.689 0.678213 181.563 1.65785 181.854C1.88392 181.927 2.03464 181.927 2.26071 181.927C3.01428 181.927 3.76785 181.563 4.21999 180.908L26.3749 146.095C27.8821 143.692 30.6703 142.235 33.5338 142.235H157.421H166.313C166.84 142.235 167.368 142.162 167.895 142.162C177.541 142.09 177.918 142.017 178.068 141.944C183.946 140.706 188.166 135.535 188.166 129.709V12.5266C188.166 5.60784 182.364 0 175.205 0ZM82.0637 96.7171H73.8498V111.501C73.8498 118.347 68.1227 123.955 60.9638 123.955H45.817H43.5563V137.866H33.4585C29.0124 137.866 24.7924 140.123 22.4564 143.838L4.44606 172.022V26.5098C8.43998 24.6891 12.886 23.5966 17.5582 23.5966H37.9045C54.6338 23.5966 68.8763 35.1765 71.8152 51.1261L73.6237 73.6303L85.3794 90.6723C87.188 93.2213 85.3041 96.7171 82.0637 96.7171ZM183.645 129.709C183.645 133.423 180.932 136.773 177.164 137.647C175.356 137.72 158.702 137.866 147.172 137.866L78.5219 71.2997L147.775 4.36975H157.421H175.28C179.952 4.36975 183.72 8.01121 183.72 12.5266V129.709H183.645Z" fill="#141413"/>
<path d="M140.315 64.4538L142.5 62.3417C143.254 61.6134 143.254 60.4482 142.5 59.7927C141.746 59.0644 140.541 59.0644 139.862 59.7927L137.677 61.9048L135.492 59.7927C134.738 59.0644 133.532 59.0644 132.854 59.7927C132.101 60.521 132.101 61.6863 132.854 62.3417L135.04 64.4538L132.854 66.5658C132.101 67.2941 132.101 68.4594 132.854 69.1148C133.231 69.479 133.683 69.6246 134.211 69.6246C134.738 69.6246 135.19 69.479 135.567 69.1148L137.752 67.0028L139.938 69.1148C140.315 69.479 140.767 69.6246 141.294 69.6246C141.822 69.6246 142.274 69.479 142.651 69.1148C143.404 68.3866 143.404 67.2213 142.651 66.5658L140.315 64.4538Z" fill="#141413"/>
<path d="M160.058 31.7535L162.243 29.6415C162.997 28.9132 162.997 27.7479 162.243 27.0924C161.49 26.3641 160.284 26.3641 159.606 27.0924L157.42 29.2045L155.235 27.0924C154.481 26.3641 153.276 26.3641 152.597 27.0924C151.844 27.8207 151.844 28.986 152.597 29.6415L154.783 31.7535L152.597 33.8655C151.844 34.5938 151.844 35.7591 152.597 36.4146C152.974 36.7787 153.426 36.9244 153.954 36.9244C154.481 36.9244 154.933 36.7787 155.31 36.4146L157.496 34.3025L159.681 36.4146C160.058 36.7787 160.51 36.9244 161.037 36.9244C161.565 36.9244 162.017 36.7787 162.394 36.4146C163.147 35.6863 163.147 34.521 162.394 33.8655L160.058 31.7535Z" fill="#141413"/>
<path d="M168.498 73.7759L170.684 71.6639C171.437 70.9356 171.437 69.7703 170.684 69.1148C169.93 68.3866 168.724 68.3866 168.046 69.1148L165.861 71.2269L163.675 69.1148C162.922 68.3866 161.716 68.3866 161.038 69.1148C160.284 69.8431 160.284 71.0084 161.038 71.6639L163.223 73.7759L161.038 75.888C160.284 76.6162 160.284 77.7815 161.038 78.437C161.415 78.8011 161.867 78.9468 162.394 78.9468C162.922 78.9468 163.374 78.8011 163.751 78.437L165.936 76.3249L168.121 78.437C168.498 78.8011 168.95 78.9468 169.478 78.9468C170.005 78.9468 170.457 78.8011 170.834 78.437C171.588 77.7087 171.588 76.5434 170.834 75.888L168.498 73.7759Z" fill="#141413"/>
</g>
<defs>
<clipPath id="clip0_151_1189">
<rect width="285" height="182" fill="white"/>
</clipPath>
</defs>
</svg>
