<svg width="286" height="182" viewBox="0 0 286 182" fill="none" xmlns="http://www.w3.org/2000/svg">
<rect width="286" height="182" fill="#E5E5E5"/>
<g clip-path="url(#clip0_92_9)">
<rect width="1600" height="4606" transform="translate(-656 -2236)" fill="white"/>
<rect x="-655" y="-118" width="1599" height="680" fill="#5ECFFF"/>
<g clip-path="url(#clip1_92_9)">
<path d="M100.272 121.524C98.732 120.026 96.6048 119.17 94.4042 119.17C92.2036 119.17 90.0764 120.026 88.536 121.524L79.147 130.581C77.6799 128.869 75.4794 127.728 72.9854 127.728H50.4663C46.9454 127.728 43.6445 129.083 41.1506 131.508L24.793 147.411L22.2991 144.987C21.4188 144.131 19.8784 144.131 18.9982 144.987L8.94897 154.757C8.06874 155.613 8.06874 157.111 8.94897 157.966L29.9277 178.292C30.3678 178.719 30.9546 178.933 31.6148 178.933C32.2749 178.933 32.8618 178.719 33.3019 178.292L43.3511 168.521C44.2313 167.665 44.2313 166.168 43.3511 165.312L40.7838 162.816L45.2583 158.466C46.872 156.897 49.1459 155.969 51.4932 155.969H71.2249C74.7458 155.969 78.0467 154.614 80.5407 152.19L100.346 132.934C101.886 131.437 102.766 129.368 102.766 127.229C102.693 125.089 101.813 123.021 100.272 121.524ZM97.1182 129.939L77.3132 149.194C75.6261 150.835 73.4255 151.69 71.0782 151.69H51.3465C47.899 151.69 44.4514 153.045 42.0308 155.47L37.5563 159.821L27.8005 150.335L44.158 134.432C45.8451 132.792 48.0457 131.936 50.3929 131.936H72.912C74.5258 131.936 75.9928 133.006 76.3596 134.432C76.3596 134.503 76.3596 134.574 76.4329 134.646C76.4329 134.788 76.4329 134.931 76.5063 135.002C76.5063 135.858 76.2129 136.714 75.5527 137.356C74.8925 137.998 74.0857 138.354 73.2054 138.354H58.6084C57.3614 138.354 56.4078 139.281 56.4078 140.494C56.4078 141.706 57.3614 142.633 58.6084 142.633H73.2054C75.3326 142.633 77.2398 141.849 78.7068 140.351C80.1739 138.853 80.9074 136.928 80.9074 134.931C80.9074 134.931 80.9074 134.931 80.9074 134.86L91.6168 124.448C92.3503 123.734 93.3773 123.306 94.4042 123.306C95.4311 123.306 96.4581 123.734 97.1916 124.448C97.9251 125.161 98.3652 126.159 98.3652 127.158C98.2919 128.299 97.8518 129.226 97.1182 129.939ZM268.909 157.324H277.198V171.16H268.909V157.324ZM256.072 157.324H264.361V171.16H256.072V157.324ZM243.309 157.324H251.598V171.16H243.309V157.324ZM230.472 157.324H238.761V171.16H230.472V157.324ZM152.793 45.6426C151.546 45.6426 150.592 44.7155 150.592 43.5031V32.5204C150.592 31.308 151.546 30.3809 152.793 30.3809C154.039 30.3809 154.993 31.308 154.993 32.5204V43.5031C154.993 44.6442 154.039 45.6426 152.793 45.6426ZM169.003 41.3636C168.27 41.3636 167.536 41.0071 167.096 40.2939L161.448 30.8088C160.861 29.8103 161.228 28.4553 162.255 27.8848C163.282 27.3143 164.676 27.6709 165.262 28.6693L170.91 38.1544C171.497 39.1528 171.131 40.5078 170.104 41.0784C169.737 41.2923 169.37 41.3636 169.003 41.3636ZM180.886 29.8103C180.52 29.8103 180.153 29.739 179.786 29.5251L170.03 24.0337C169.003 23.4632 168.637 22.1082 169.223 21.1097C169.81 20.1113 171.204 19.7547 172.231 20.3252L181.987 25.8166C183.014 26.3872 183.38 27.7422 182.794 28.7406C182.427 29.4538 181.693 29.8103 180.886 29.8103ZM185.214 14.0494H173.918C172.671 14.0494 171.717 13.1223 171.717 11.9099C171.717 10.6975 172.671 9.77038 173.918 9.77038H185.214C186.461 9.77038 187.415 10.6975 187.415 11.9099C187.415 13.1223 186.461 14.0494 185.214 14.0494ZM283.579 150.121H224.164C222.917 150.121 221.964 151.049 221.964 152.261V154.329H212.428C211.181 154.329 210.227 155.256 210.227 156.469V162.317H161.595C162.695 161.675 163.722 160.89 164.676 159.963C168.343 156.397 169.81 151.619 169.15 146.984C164.455 146.342 159.468 147.768 155.8 151.334C152.719 154.329 151.179 158.323 151.179 162.317H135.408C125.065 162.317 116.63 154.115 116.63 144.06V124.091C117.29 125.161 118.097 126.159 119.051 127.086C122.718 130.652 127.633 132.078 132.401 131.437C133.061 126.872 131.594 122.023 127.926 118.457C124.845 115.462 120.738 113.964 116.63 113.964V69.2484C117.29 70.3182 118.097 71.3166 119.051 72.2437C122.718 75.8096 127.633 77.2359 132.401 76.5941C133.061 72.0298 131.594 67.1803 127.926 63.6144C124.845 60.6191 120.738 59.1215 116.63 59.1215V51.9185C116.63 46.855 114.943 42.2194 112.009 38.4397C112.816 38.5823 113.622 38.6536 114.429 38.6536C119.564 38.6536 124.112 36.2288 126.973 32.5204C124.112 28.8119 119.564 26.3871 114.429 26.3871C109.882 26.3871 105.774 28.3127 102.913 31.308C100.052 30.0243 96.8248 29.3111 93.4506 29.3111C87.8025 29.3111 82.5945 31.308 78.5601 34.5886C78.6335 33.8754 78.7068 33.2335 78.7068 32.5204C78.7068 27.5282 76.2129 23.1066 72.3986 20.3252C68.5843 23.1066 66.0903 27.5282 66.0903 32.5204C66.0903 37.156 68.2175 41.2923 71.5917 44.145C70.6381 46.5698 70.198 49.2085 70.198 51.9185V82.9412C69.5378 81.8715 68.731 80.873 67.7774 79.9459C64.1098 76.3801 59.1952 74.9538 54.4273 75.5956C53.7671 80.1599 55.2342 85.0094 58.9018 88.5752C61.9092 91.4992 65.7969 92.9256 69.6845 93.0682C67.704 101.555 59.9287 107.831 50.613 107.831C39.8302 107.831 31.028 99.2727 31.028 88.7892V74.5259C31.6881 75.5956 32.495 76.5941 33.4486 77.5212C37.1162 81.087 42.0308 82.5133 46.7987 81.8715C47.4588 77.3072 45.9918 72.4577 42.3242 68.8919C39.2434 65.8966 35.1357 64.3989 31.028 64.3989V54.9138H46.2852C47.5322 54.9138 48.4858 53.9867 48.4858 52.7743V22.6787L53.1803 26.7437C54.0605 27.5282 55.4542 27.4569 56.2611 26.5298C57.068 25.674 56.9946 24.319 56.041 23.5345L29.781 0.927116C29.1942 0.4279 28.3873 0.285266 27.6538 0.499216C27.3604 0.570533 27.1403 0.713166 26.8469 0.927116L0.733529 23.5345C-0.146697 24.319 -0.293401 25.674 0.513472 26.5298C0.953585 27.029 1.5404 27.243 2.12722 27.243C2.64068 27.243 3.15415 27.1003 3.59426 26.6724L8.2888 22.6074V52.703C8.2888 53.9154 9.24238 54.8425 10.4894 54.8425H26.6268V88.7179C26.6268 90.6434 26.8469 92.569 27.3604 94.3519C24.1329 97.1332 22.1524 101.198 22.1524 105.763C22.1524 110.755 24.6463 115.176 28.4606 117.958C32.2016 115.248 34.6222 110.969 34.6956 106.119C38.95 109.828 44.5248 112.038 50.613 112.038C52.08 112.038 53.4737 111.896 54.8674 111.682C57.7281 115.248 62.2026 117.601 67.2639 117.601C72.3986 117.601 76.9464 115.176 79.8071 111.468C76.9464 107.759 72.3986 105.406 67.3373 105.335C71.7384 101.127 74.5258 95.2077 74.5258 88.7179V69.3198C78.6335 69.3911 82.6679 67.8934 85.822 64.8268C89.4896 61.261 90.9567 56.4828 90.2965 51.8472C85.6019 51.2053 80.614 52.6317 76.9464 56.1975C75.9928 57.1246 75.1859 58.123 74.5258 59.2641V51.8472C74.5258 41.7915 82.9613 33.5901 93.3039 33.5901C103.647 33.5901 112.082 41.7915 112.082 51.8472V86.4357C107.974 86.3644 103.94 87.8621 100.786 90.9287C97.1182 94.4945 95.6512 99.2727 96.3114 103.908C101.006 104.55 105.994 103.124 109.661 99.558C110.615 98.6309 111.422 97.6325 112.082 96.4914V141.278C107.974 141.207 103.94 142.705 100.786 145.771C97.1182 149.337 95.6512 154.115 96.3114 158.751C101.006 159.393 105.994 157.966 109.661 154.4C111.055 153.045 112.155 151.477 112.889 149.836C115.016 157.396 121.031 163.386 128.733 165.597C128.44 169.876 129.98 174.227 133.281 177.507C136.948 181.073 141.863 182.499 146.631 181.857C147.291 177.293 145.824 172.444 142.156 168.878C141.203 167.951 140.176 167.166 139.076 166.524H173.771C173.771 170.518 175.238 174.44 178.392 177.507C182.06 181.073 186.975 182.499 191.742 181.857C192.403 177.293 190.936 172.444 187.268 168.878C186.314 167.951 185.288 167.166 184.187 166.524H210.081V172.372C210.081 173.585 211.034 174.512 212.281 174.512H221.817V176.58C221.817 177.792 222.77 178.719 224.017 178.719H283.433C284.68 178.719 285.633 177.792 285.633 176.58V152.19C285.78 151.12 284.826 150.121 283.579 150.121ZM24.3529 35.0878C23.2526 35.0878 22.3724 35.9436 22.3724 37.0133V50.7061H12.7633V23.5345H44.2313V50.7061H35.5024V37.0133C35.5024 35.9436 34.6222 35.0878 33.5219 35.0878H24.3529ZM214.628 170.375V158.679H221.964V170.375H214.628ZM281.379 174.583H226.365V172.515V156.54V154.472H281.379V174.583ZM285.78 12.1951C285.78 8.91458 284.46 5.84796 282.112 3.56583C279.765 1.2837 276.611 0 273.237 0L153.453 0.142633C150.078 0.142633 146.924 1.42633 144.577 3.70846C142.23 5.9906 140.909 9.12853 140.909 12.4091L141.056 99.9146V114.321C141.056 121.096 146.704 126.516 153.673 126.516L260.327 126.444C262.527 126.444 264.508 127.229 266.048 128.727L282.259 144.274C282.699 144.701 283.213 144.915 283.799 144.915C284.093 144.915 284.386 144.844 284.68 144.773C285.487 144.416 286 143.632 286 142.776L285.78 12.1951ZM145.237 12.4091C145.237 10.2696 146.117 8.27273 147.658 6.77508C149.198 5.27743 151.252 4.42163 153.453 4.42163H159.541C161.815 6.34718 163.062 9.05721 163.062 11.9099C163.062 17.4013 158.441 21.8942 152.793 21.8942C149.932 21.8942 147.218 20.7531 145.237 18.685V12.4091ZM145.237 24.1763C147.511 25.46 150.078 26.2445 152.793 26.2445C160.861 26.2445 167.463 19.826 167.463 11.9812C167.463 9.27116 166.656 6.70376 165.262 4.49295L273.163 4.35031C275.364 4.35031 277.418 5.20611 278.958 6.70376C280.499 8.20141 281.379 10.1983 281.379 12.3378L281.452 53.9867L277.051 45.3574C276.684 44.7155 276.024 44.2876 275.291 44.2163C274.557 44.145 273.824 44.4303 273.31 45.0721L269.202 50.2782L266.782 46.1419L262.161 38.3683C261.794 37.7265 261.134 37.2986 260.327 37.2986C259.593 37.2986 258.86 37.5839 258.42 38.2257L252.771 45.9992C252.771 45.9992 252.771 46.0705 252.698 46.0705L248.957 37.3699L243.016 23.4632C242.649 22.6787 241.842 22.1082 240.962 22.1082C240.082 22.1082 239.275 22.6074 238.908 23.4632L229.079 46.4984L223.871 58.6936L221.01 51.9898C220.643 51.2053 219.836 50.6348 218.956 50.6348C218.076 50.6348 217.269 51.134 216.902 51.9898L205.093 79.6607C204.432 80.0886 203.846 80.5878 203.259 81.1583L188.222 95.7782C186.681 97.2759 184.627 98.1317 182.427 98.1317H181.84V91.3566C184.701 90.4295 186.755 87.8621 186.755 84.7955C186.755 80.9444 183.527 77.8778 179.639 77.8778C175.752 77.8778 172.524 81.0157 172.524 84.7955C172.524 87.8621 174.578 90.5008 177.439 91.3566V98.1317H162.475V91.9984C162.768 92.0698 163.062 92.1411 163.429 92.1411C165.629 92.1411 167.463 90.4295 167.61 88.3613C167.61 88.2187 167.61 88.0047 167.536 87.8621L161.375 74.8111C161.008 73.9553 159.761 73.9553 159.321 74.8111C157.487 78.6622 153.819 86.4357 153.159 87.8621C153.086 88.0047 153.013 88.2187 153.086 88.3613C153.233 90.5008 155.066 92.1411 157.267 92.1411C157.56 92.1411 157.854 92.0698 158.147 91.9984V98.1317H151.766H145.457L145.237 24.1763ZM257.466 46.7837L260.033 43.2179L262.381 47.1403C260.84 47.8535 258.933 47.7108 257.466 46.7837ZM245.656 47.6395C244.556 47.6395 243.456 47.1403 242.722 46.3558C242.282 45.8566 241.695 45.6426 241.035 45.6426C240.375 45.6426 239.788 45.9279 239.348 46.3558C238.614 47.2116 237.514 47.6395 236.414 47.6395C235.46 47.6395 234.507 47.2829 233.847 46.7124L241.108 29.6677L244.996 38.7962L248.297 46.6411C247.637 47.2829 246.683 47.6395 245.656 47.6395ZM269.129 125.803C266.782 123.52 263.628 122.237 260.253 122.237L153.599 122.308C149.052 122.308 145.384 118.742 145.384 114.321V102.054H151.692H182.72H218.296C219.543 102.054 220.497 101.127 220.497 99.9146C220.497 98.7022 219.543 97.7751 218.296 97.7751H192.329L206.633 83.8683C208.173 82.3707 210.227 81.5149 212.428 81.5149H253.505C256.439 81.5149 259.226 80.5165 261.5 78.7336C261.794 78.4483 262.161 78.2343 262.454 77.9491L264.728 75.7383C266.268 74.2406 268.322 73.3848 270.523 73.3848H281.452L281.525 137.712L269.129 125.803Z" fill="#141413"/>
</g>
</g>
<defs>
<clipPath id="clip0_92_9">
<rect width="1600" height="4606" fill="white" transform="translate(-656 -2236)"/>
</clipPath>
<clipPath id="clip1_92_9">
<rect width="286" height="182" fill="white"/>
</clipPath>
</defs>
</svg>
